<svg width="96" height="96" viewBox="0 0 96 96" fill="none" xmlns="http://www.w3.org/2000/svg">
<path d="M17.7058 81.603L10.9678 6H85.0318L78.2848 81.591L47.9548 90L17.7058 81.603Z" fill="#1572B6"/>
<path d="M48 83.5741L72.51 76.7791L78.276 12.1831H48V83.5741Z" fill="#33A9DC"/>
<path d="M48 39.5729H60.27L61.116 30.0779H48V20.8049H48.033H71.25L71.028 23.2919L68.751 48.8459H48V39.5729Z" fill="white"/>
<path d="M48.0567 63.654L48.0147 63.666L37.6887 60.876L37.0287 53.481H32.0097H27.7197L29.0187 68.04L48.0117 73.314L48.0567 73.302V63.654Z" fill="#EBEBEB"/>
<path d="M59.4814 48.4531L58.3654 60.8701L48.0244 63.6601V73.3081L67.0324 68.0401L67.1734 66.4741L68.7844 48.4531H59.4814Z" fill="white"/>
<path d="M48.0327 20.8052V26.5652V30.0542V30.0782H25.6647H25.6347L25.4487 27.9932L25.0257 23.2922L24.8037 20.8052H48.0327Z" fill="#EBEBEB"/>
<path d="M47.9996 39.573V45.333V48.822V48.846H37.8326H37.8026L37.6166 46.761L37.1966 42.06L36.9746 39.573H47.9996Z" fill="#EBEBEB"/>
</svg>
