<svg width="96" height="96" viewBox="0 0 96 96" fill="none" xmlns="http://www.w3.org/2000/svg">
<g id="docker">
<path id="Vector" d="M48 90C71.196 90 90 71.196 90 48C90 24.804 71.196 6 48 6C24.804 6 6 24.804 6 48C6 71.196 24.804 90 48 90Z" fill="#1794D4"/>
<path id="Vector_2" d="M54 21H48V27H54V21Z" fill="white"/>
<path id="Vector_3" d="M30 30H36V36H30V30Z" fill="white"/>
<path id="Vector_4" d="M18.0046 50.8242C18.5173 59.5281 23.7008 72 42 72C62.4 72 71.4999 57 73.5 49.5C75.9999 49.5 81.6 48 84 42C82.5 40.5 76.5 40.5 73.5 42C73.5 39.6 72 34.5 69 33C66.9999 35.0001 63.9 40.2 67.5 45C66 48 62.0001 48 60 48H20.8287C19.2403 48 17.9112 49.2384 18.0046 50.8242Z" fill="white"/>
<path id="Vector_5" d="M27 39H21V45H27V39Z" fill="white"/>
<path id="Vector_6" d="M30 39H36V45H30V39Z" fill="white"/>
<path id="Vector_7" d="M45 39H39V45H45V39Z" fill="white"/>
<path id="Vector_8" d="M48 39H54V45H48V39Z" fill="white"/>
<path id="Vector_9" d="M63 39H57V45H63V39Z" fill="white"/>
<path id="Vector_10" d="M45 30H39V36H45V30Z" fill="white"/>
<path id="Vector_11" d="M48 30H54V36H48V30Z" fill="white"/>
</g>
</svg>
