<svg width="20" height="20" viewBox="0 0 20 20" fill="none" xmlns="http://www.w3.org/2000/svg">
<path d="M12.6213 9.2305C12.489 9.22996 12.3581 9.25706 12.2368 9.31006C12.1156 9.36305 12.0068 9.44078 11.9174 9.53826C11.828 9.63574 11.7599 9.75083 11.7175 9.87614C11.6751 10.0015 11.6594 10.1342 11.6713 10.266H13.6283C13.6409 10.1293 13.6238 9.9915 13.5781 9.86206C13.5323 9.73262 13.4591 9.61464 13.3634 9.51622C13.2677 9.41781 13.1518 9.3413 13.0237 9.29198C12.8956 9.24265 12.7583 9.22168 12.6213 9.2305ZM7.61479 10.285H6.44629V12.128H7.39629C8.34629 12.128 8.76429 11.8145 8.76429 11.178C8.76429 10.5415 8.32729 10.285 7.61479 10.285ZM8.44129 8.594C8.44129 8.0905 8.10879 7.7865 7.53879 7.7865H6.44629V9.4395H7.25379C8.09929 9.4395 8.44129 9.1355 8.44129 8.594Z" fill="#F6F7F9"/>
<path d="M10 0.5C8.12108 0.5 6.28435 1.05717 4.72209 2.10104C3.15982 3.14491 1.94218 4.62861 1.22315 6.36451C0.504116 8.1004 0.315985 10.0105 0.682544 11.8534C1.0491 13.6962 1.95389 15.3889 3.28249 16.7175C4.61109 18.0461 6.30383 18.9509 8.14665 19.3175C9.98946 19.684 11.8996 19.4959 13.6355 18.7769C15.3714 18.0578 16.8551 16.8402 17.899 15.2779C18.9428 13.7156 19.5 11.8789 19.5 10C19.5 8.75244 19.2543 7.5171 18.7769 6.36451C18.2994 5.21191 17.5997 4.16464 16.7175 3.28249C15.8354 2.40033 14.7881 1.70056 13.6355 1.22314C12.4829 0.745725 11.2476 0.5 10 0.5ZM7.815 13.04H5.25V6.865H7.815C8.9265 6.865 9.658 7.4445 9.658 8.385C9.67111 8.70096 9.57121 9.01126 9.37622 9.26022C9.18123 9.50918 8.9039 9.68052 8.594 9.7435C8.7904 9.74805 8.9838 9.79263 9.16238 9.87451C9.34095 9.95638 9.50094 10.0738 9.63256 10.2197C9.76417 10.3655 9.86464 10.5367 9.92782 10.7227C9.991 10.9087 10.0156 11.1057 10 11.3015C10 12.4035 9.05 13.04 7.815 13.04ZM11.1875 7.34H14.0375V7.815H11.1875V7.34ZM14.75 10.9975H11.615V11.1305C11.5987 11.2749 11.6135 11.421 11.6584 11.5592C11.7033 11.6974 11.7773 11.8243 11.8755 11.9314C11.9736 12.0385 12.0936 12.1234 12.2272 12.1802C12.3609 12.2371 12.5053 12.2646 12.6505 12.261C12.8544 12.2927 13.0629 12.2495 13.2375 12.1395C13.4121 12.0295 13.541 11.8601 13.6005 11.6625H14.75C14.6476 12.1185 14.3808 12.5208 14.0005 12.7925C13.6202 13.0641 13.1531 13.1861 12.6885 13.135C12.3916 13.165 12.0917 13.1295 11.81 13.0312C11.5282 12.9328 11.2714 12.7739 11.0577 12.5656C10.844 12.3573 10.6785 12.1047 10.5729 11.8256C10.4673 11.5465 10.4242 11.2476 10.4465 10.95V10.532C10.4263 10.2436 10.4688 9.95434 10.5709 9.68392C10.673 9.4135 10.8324 9.16837 11.0381 8.96533C11.2439 8.76229 11.4911 8.60616 11.7629 8.50763C12.0346 8.4091 12.3244 8.3705 12.6125 8.3945C12.8996 8.37609 13.1873 8.41941 13.4563 8.52154C13.7253 8.62367 13.9692 8.78224 14.1717 8.98658C14.3743 9.19091 14.5307 9.43626 14.6304 9.70611C14.7302 9.97597 14.7709 10.2641 14.75 10.551V10.9975Z" fill="#F6F7F9"/>
</svg>
