<svg width="96" height="96" viewBox="0 0 96 96" fill="none" xmlns="http://www.w3.org/2000/svg">
<g id="express">
<rect width="96" height="96" fill="white"/>
<g id="original">
<path id="Vector" d="M95.0022 73.83C91.5822 74.7 89.4672 73.8675 87.5697 71.0175C83.3097 64.635 78.6072 58.545 74.0697 52.3425C73.4847 51.54 72.8772 50.7525 72.1197 49.755C66.7497 57 61.3872 63.9 56.3547 71.0775C54.5547 73.6425 52.6647 74.76 49.3047 73.8525L69.4947 46.755L50.6997 22.2825C53.9322 21.6525 56.1672 21.975 58.1472 24.87C62.5197 31.26 67.3422 37.3425 72.1497 43.7775C76.9872 37.365 81.7497 31.275 86.2497 24.945C88.0572 22.38 89.9997 21.405 93.2472 22.35C90.7872 25.6125 88.3797 28.8225 85.9572 32.01C82.6872 36.3075 79.4772 40.6575 76.0872 44.865C74.8797 46.365 75.0747 47.34 76.1547 48.7575C82.4247 57 88.6197 65.325 95.0022 73.83Z" fill="black"/>
<path id="Vector_2" d="M0.997109 46.305C1.53711 43.5975 1.89711 40.8375 2.64711 38.1825C7.14711 22.11 25.5971 15.4275 38.2721 25.3875C45.6971 31.23 47.5421 39.465 47.1746 48.75H5.32461C4.69461 65.4075 16.6871 75.465 31.9721 70.335C37.3346 68.535 40.4921 64.335 42.0746 59.085C42.8771 56.4525 44.2046 56.04 46.6796 56.79C45.4121 63.36 42.5396 68.85 36.5396 72.285C27.5396 77.43 14.6921 75.765 7.93461 68.6175C3.94461 64.4175 2.24961 59.19 1.49961 53.5425C1.38711 52.6425 1.15461 51.7575 0.974609 50.865C0.989609 49.345 0.997109 47.825 0.997109 46.305ZM5.39961 45.1875H43.2221C42.9746 33.1425 35.4746 24.585 25.2221 24.51C13.9721 24.42 5.88711 32.775 5.39961 45.1875Z" fill="black"/>
</g>
</g>
</svg>
