<svg width="96" height="96" viewBox="0 0 96 96" fill="none" xmlns="http://www.w3.org/2000/svg">
<g id="figma">
<path id="Vector" d="M51.3008 48C51.3008 40.266 57.4148 34.002 64.9508 34.002C72.4928 34.002 78.6008 40.26 78.6008 48C78.6008 55.734 72.4928 61.998 64.9508 61.998C57.4208 61.998 51.3008 55.74 51.3008 48Z" fill="#1ABCFE"/>
<path id="Vector_2" d="M24 76.002C24 68.268 30.114 61.998 37.65 61.998H51.3V76.002C51.3 83.73 45.186 90 37.65 90C30.114 90 24 83.73 24 76.002Z" fill="#0ACF83"/>
<path id="Vector_3" d="M51.3008 6V34.002H64.9508C72.4928 34.002 78.6008 27.732 78.6008 19.998C78.6008 12.27 72.4928 6 64.9508 6H51.3008Z" fill="#FF7262"/>
<path id="Vector_4" d="M24 19.998C24 27.732 30.114 34.002 37.65 34.002H51.3V6H37.65C30.114 6 24 12.27 24 19.998Z" fill="#F24E1E"/>
<path id="Vector_5" d="M24 48C24 55.734 30.114 61.998 37.65 61.998H51.3V34.002H37.65C30.114 34.002 24 40.26 24 48Z" fill="#A259FF"/>
</g>
</svg>
