<svg width="96" height="96" viewBox="0 0 96 96" fill="none" xmlns="http://www.w3.org/2000/svg">
<g id="git">
<path id="Vector" d="M7.75608 52.2396C5.41464 49.8981 5.41464 46.1019 7.75608 43.7604L43.7604 7.75608C46.1019 5.41464 49.8981 5.41464 52.2396 7.75608L88.2438 43.7604C90.5853 46.1019 90.5853 49.8981 88.2438 52.2396L52.2396 88.2438C49.8981 90.5853 46.1019 90.5853 43.7604 88.2438L7.75608 52.2396Z" fill="#EE513B"/>
<path id="Vector_2" d="M36.4467 15.1846L32.8008 18.8306L42.2175 28.2473C41.8365 29.0646 41.6238 29.976 41.6238 30.9372C41.6238 33.666 43.3383 35.9943 45.7488 36.9036V59.9394C43.3383 60.8487 41.6238 63.177 41.6238 65.9058C41.6238 69.4266 44.478 72.2808 47.9988 72.2808C51.5196 72.2808 54.3738 69.4266 54.3738 65.9058C54.3738 63.432 52.9647 61.287 50.9052 60.2304V36.9351L59.9067 45.9366C59.5443 46.7373 59.3427 47.6262 59.3427 48.5622C59.3427 52.083 62.1969 54.9372 65.7177 54.9372C69.2385 54.9372 72.0927 52.083 72.0927 48.5622C72.0927 45.0414 69.2385 42.1872 65.7177 42.1872C65.0334 42.1872 64.3746 42.2949 63.7566 42.4944L54.0891 32.8269C54.2742 32.2299 54.3738 31.5951 54.3738 30.9372C54.3738 27.4163 51.5196 24.5621 47.9988 24.5621C47.3409 24.5621 46.7064 24.6618 46.1091 24.8469L36.4467 15.1846Z" fill="white"/>
</g>
</svg>
