<svg width="96" height="96" viewBox="0 0 96 96" fill="none" xmlns="http://www.w3.org/2000/svg">
<g id="icons8-sass 1" clip-path="url(#clip0_1648_6448)">
<path id="Vector" d="M83.7743 60.4731C80.6983 60.4891 78.0343 61.2271 75.8023 62.3291C74.9863 60.6991 74.1583 59.2651 74.0203 58.1991C73.8583 56.9551 73.6703 56.2111 73.8663 54.7291C74.0623 53.2471 74.9203 51.1471 74.9083 50.9891C74.8963 50.8311 74.7163 50.0771 72.9423 50.0631C71.1683 50.0511 69.6503 50.4051 69.4723 50.8731C69.2943 51.3411 68.9523 52.3951 68.7403 53.4951C68.4303 55.1031 65.1983 60.8411 63.3643 63.8411C62.7643 62.6691 62.2543 61.6371 62.1483 60.8211C61.9863 59.5771 61.7983 58.8331 61.9943 57.3511C62.1903 55.8691 63.0483 53.7691 63.0363 53.6111C63.0243 53.4531 62.8443 52.6991 61.0703 52.6851C59.2963 52.6731 57.7783 53.0271 57.6003 53.4951C57.4223 53.9631 57.2303 55.0571 56.8683 56.1171C56.5043 57.1751 52.2103 66.7451 51.0843 69.2271C50.5103 70.4911 50.0123 71.5071 49.6603 72.1991L49.6583 72.1951C49.6583 72.1951 49.6363 72.2411 49.6003 72.3191C49.2983 72.9091 49.1203 73.2351 49.1203 73.2351C49.1203 73.2351 49.1223 73.2391 49.1263 73.2471C48.8863 73.6811 48.6303 74.0831 48.5043 74.0831C48.4163 74.0831 48.2383 72.9291 48.5423 71.3451C49.1823 68.0251 50.7163 62.8491 50.7023 62.6691C50.6943 62.5771 50.9883 61.6751 49.7003 61.2031C48.4483 60.7451 48.0023 61.5091 47.8883 61.5111C47.7783 61.5131 47.6963 61.7811 47.6963 61.7811C47.6963 61.7811 49.0903 55.9591 45.0363 55.9591C42.5003 55.9591 38.9883 58.7331 37.2583 61.2471C36.1663 61.8431 33.8283 63.1191 31.3503 64.4811C30.3983 65.0051 29.4263 65.5391 28.5043 66.0471C28.4423 65.9771 28.3783 65.9091 28.3143 65.8391C23.3963 60.5931 14.3083 56.8831 14.6923 49.8291C14.8323 47.2651 15.7243 40.5131 32.1583 32.3251C45.6203 25.6171 56.3983 27.4631 58.2603 31.5531C60.9203 37.3991 52.5003 48.2611 38.5203 49.8291C33.1943 50.4271 30.3883 48.3611 29.6903 47.5931C28.9563 46.7831 28.8463 46.7471 28.5723 46.8991C28.1263 47.1471 28.4083 47.8611 28.5723 48.2871C28.9903 49.3731 30.7023 51.2991 33.6223 52.2591C36.1923 53.1031 42.4463 53.5651 50.0083 50.6391C58.4803 47.3631 65.0943 38.2471 63.1503 30.6291C61.1743 22.8811 48.3263 20.3331 36.1663 24.6531C28.9203 27.2251 21.0863 31.2611 15.4523 36.5291C8.7543 42.7931 7.6863 48.2471 8.1263 50.5251C9.6903 58.6211 20.8483 63.8931 25.3163 67.7991C25.0963 67.9211 24.8883 68.0351 24.7003 68.1391C22.4603 69.2471 13.9543 73.6991 11.8263 78.4011C9.4123 83.7351 12.2103 87.5631 14.0623 88.0791C19.8003 89.6751 25.6883 86.8031 28.8543 82.0831C32.0183 77.3651 31.6323 71.2191 30.1803 68.4151C30.1623 68.3811 30.1423 68.3471 30.1243 68.3111C30.7023 67.9691 31.2923 67.6211 31.8763 67.2771C33.0163 66.6071 34.1363 65.9831 35.1063 65.4551C34.5623 66.9431 34.1643 68.7291 33.9583 71.3071C33.7143 74.3351 34.9563 78.2491 36.5803 79.7891C37.2963 80.4671 38.1563 80.4831 38.7003 80.4831C40.5903 80.4831 41.4523 78.9111 42.4023 77.0511C43.5663 74.7711 44.6003 72.1151 44.6003 72.1151C44.6003 72.1151 43.3043 79.2871 46.8363 79.2871C48.1243 79.2871 49.4183 77.6171 49.9963 76.7671C49.9983 76.7771 49.9983 76.7811 49.9983 76.7811C49.9983 76.7811 50.0323 76.7251 50.0983 76.6151C50.2323 76.4111 50.3083 76.2811 50.3083 76.2811C50.3083 76.2811 50.3103 76.2671 50.3143 76.2431C50.8323 75.3451 51.9803 73.2971 53.7003 69.9191C55.9243 65.5551 58.0563 60.0871 58.0563 60.0871C58.0563 60.0871 58.2543 61.4231 58.9043 63.6351C59.2863 64.9351 60.0983 66.3731 60.7403 67.7531C60.2243 68.4691 59.9083 68.8791 59.9083 68.8791C59.9083 68.8791 59.9103 68.8871 59.9163 68.9011C59.5043 69.4491 59.0423 70.0391 58.5583 70.6151C56.8023 72.7051 54.7123 75.0931 54.4323 75.7811C54.1023 76.5931 54.1803 77.1891 54.8183 77.6711C55.2843 78.0211 56.1123 78.0771 56.9783 78.0191C58.5563 77.9131 59.6643 77.5211 60.2123 77.2831C61.0663 76.9811 62.0603 76.5071 62.9923 75.8211C64.7143 74.5551 65.7523 72.7451 65.6523 70.3451C65.5963 69.0231 65.1763 67.7131 64.6423 66.4771C64.7983 66.2531 64.9543 66.0251 65.1123 65.7971C67.8263 61.8291 69.9323 57.4691 69.9323 57.4691C69.9323 57.4691 70.1303 58.8051 70.7803 61.0171C71.1083 62.1351 71.7583 63.3571 72.3423 64.5531C69.7903 66.6271 68.2083 69.0371 67.6583 70.6171C66.6423 73.5411 67.4383 74.8651 68.9303 75.1671C69.6063 75.3031 70.5623 74.9931 71.2803 74.6891C72.1743 74.3931 73.2483 73.8991 74.2523 73.1611C75.9743 71.8951 77.6303 70.1231 77.5303 67.7251C77.4843 66.6331 77.1883 65.5491 76.7863 64.5091C78.9503 63.6071 81.7503 63.1071 85.3183 63.5231C92.9723 64.4171 94.4723 69.1951 94.1863 71.1951C93.8983 73.1951 92.2943 74.2951 91.7563 74.6271C91.2203 74.9591 91.0563 75.0751 91.1003 75.3211C91.1663 75.6791 91.4143 75.6671 91.8723 75.5891C92.5023 75.4831 95.8903 73.9631 96.0363 70.2711C96.2183 65.5791 91.7283 60.4311 83.7743 60.4731ZM24.7803 80.3611C22.2443 83.1271 18.7043 84.1711 17.1843 83.2911C15.5443 82.3411 16.1943 78.2691 19.3043 75.3331C21.2003 73.5451 23.6483 71.8971 25.2723 70.8831C25.6423 70.6611 26.1843 70.3351 26.8443 69.9391C26.9543 69.8771 27.0163 69.8431 27.0163 69.8431L27.0143 69.8391C27.1423 69.7631 27.2723 69.6851 27.4063 69.6031C28.5403 73.7811 27.4423 77.4591 24.7803 80.3611ZM43.2503 67.8071C42.3683 69.9591 40.5203 75.4671 39.3943 75.1711C38.4283 74.9171 37.8403 70.7311 39.2023 66.6111C39.8863 64.5371 41.3503 62.0591 42.2103 61.0971C43.5943 59.5491 45.1183 59.0431 45.4883 59.6711C45.9583 60.4711 43.8043 66.4571 43.2503 67.8071ZM58.5083 75.0871C58.1343 75.2831 57.7903 75.4051 57.6323 75.3111C57.5143 75.2411 57.7863 74.9831 57.7863 74.9831C57.7863 74.9831 59.6943 72.9291 60.4463 71.9951C60.8843 71.4511 61.3903 70.8051 61.9423 70.0851C61.9463 70.1571 61.9483 70.2291 61.9483 70.2991C61.9443 72.7591 59.5683 74.4191 58.5083 75.0871ZM70.2623 72.4071C69.9823 72.2091 70.0303 71.5671 70.9483 69.5651C71.3083 68.7791 72.1323 67.4571 73.5603 66.1931C73.7263 66.7131 73.8263 67.2111 73.8243 67.6751C73.8063 70.7711 71.5983 71.9271 70.2623 72.4071Z" fill="#F06292"/>
</g>
<defs>
<clipPath id="clip0_1648_6448">
<rect width="96" height="96" fill="white"/>
</clipPath>
</defs>
</svg>
