<svg width="96" height="96" viewBox="0 0 96 96" fill="none" xmlns="http://www.w3.org/2000/svg">
<g clip-path="url(#clip0_1648_6324)">
<path d="M0 0H96V96H0V0Z" fill="#F7DF1E"/>
<path d="M25.2423 80.2246L32.5889 75.7785C34.0062 78.2915 35.2955 80.4176 38.3881 80.4176C41.3525 80.4176 43.2215 79.258 43.2215 74.7475V44.0732H52.243V74.8751C52.243 84.2191 46.7658 88.4722 38.7748 88.4722C31.5579 88.4722 27.3687 84.7344 25.2422 80.2238" fill="black"/>
<path d="M57.1426 79.258L64.4883 75.0049C66.422 78.1629 68.9352 80.4826 73.3814 80.4826C77.1194 80.4826 79.5031 78.6136 79.5031 76.0359C79.5031 72.9428 77.0545 71.8471 72.9302 70.0434L70.6754 69.0761C64.1664 66.3057 59.8487 62.8259 59.8487 55.4794C59.8487 48.7131 65.0039 43.5576 73.0594 43.5576C78.7947 43.5576 82.9189 45.5555 85.8828 50.7753L78.8587 55.2859C77.312 52.5152 75.6371 51.4199 73.0595 51.4199C70.4174 51.4199 68.7418 53.0953 68.7418 55.2859C68.7418 57.9925 70.4174 59.0883 74.2835 60.7639L76.5387 61.7304C84.2073 65.0171 88.525 68.3677 88.525 75.907C88.525 84.0271 82.1454 88.4731 73.5749 88.4731C65.1976 88.4731 59.7843 84.478 57.1426 79.258Z" fill="black"/>
</g>
<defs>
<clipPath id="clip0_1648_6324">
<rect width="96" height="96" fill="white"/>
</clipPath>
</defs>
</svg>
