<svg width="96" height="96" viewBox="0 0 96 96" fill="none" xmlns="http://www.w3.org/2000/svg">
<g id="mongodb">
<path id="Vector" fill-rule="evenodd" clip-rule="evenodd" d="M65.4443 75.1042C65.5711 74.8604 65.6926 74.6452 65.7961 74.4224C65.8613 74.2799 65.9618 74.2514 66.1036 74.2552C66.9533 74.2792 67.8031 74.3054 68.6536 74.3137C69.3758 74.3212 70.0996 74.3077 70.8226 74.2994C71.6371 74.2897 72.4516 74.2469 73.2653 74.2702C74.3491 74.3017 75.4051 74.5139 76.3853 74.9962C77.5561 75.5729 78.4418 76.4512 79.0456 77.6084C79.4311 78.3472 79.6546 79.1309 79.7438 79.9634C79.8728 81.1694 79.7881 82.3477 79.4056 83.5012C78.9316 84.9307 78.0316 86.0249 76.7813 86.8447C75.8191 87.4754 74.7638 87.8482 73.6328 88.0612C72.4358 88.2869 71.2351 88.2142 70.0343 88.2179C68.7173 88.2232 67.4011 88.1947 66.0841 88.1797C65.8538 88.1774 65.8208 88.1339 65.8816 87.9142L65.9378 87.7117C66.0661 87.3082 66.1351 87.2902 66.5446 87.2227C66.8281 87.1769 67.1221 87.0704 67.3598 86.9129C67.4978 86.8214 67.5548 86.5829 67.6088 86.3992C67.6553 86.2387 67.6576 86.0624 67.6591 85.8929C67.6778 83.3242 67.6973 80.7562 67.7078 78.1889C67.7101 77.5402 67.6951 76.8899 67.6591 76.2419C67.6336 75.7882 67.3913 75.4777 66.8513 75.3704C66.4313 75.2872 66.0083 75.2227 65.5861 75.1484L65.4443 75.1042ZM77.5013 81.3239C77.4443 80.8124 77.4166 80.2964 77.3251 79.7924C77.1061 78.5827 76.5766 77.5289 75.6466 76.7032C74.1428 75.3689 72.3323 75.1634 70.4348 75.3224C70.0028 75.3584 69.9098 75.5062 69.9031 75.9502C69.8926 76.5802 69.8821 77.2102 69.8813 77.8402C69.8783 79.8382 69.8783 81.8362 69.8813 83.8342C69.8821 84.4027 69.8881 84.9712 69.9046 85.5382C69.9226 86.1187 70.1333 86.6099 70.7018 86.8349C71.5981 87.1897 72.5408 87.2317 73.4813 87.0869C74.9836 86.8567 76.0343 85.9814 76.7393 84.6697C77.2973 83.6287 77.4548 82.4924 77.5013 81.3239ZM81.1531 88.1272C81.1351 87.8159 81.2626 87.5587 81.4201 87.3224C81.4628 87.2587 81.6098 87.2617 81.7111 87.2414L82.5706 87.0712C82.8743 87.0067 83.0341 86.8027 83.0768 86.5049C83.1053 86.3084 83.1323 86.1097 83.1346 85.9109C83.1533 84.3382 83.1713 82.7654 83.1788 81.1927C83.1863 79.6177 83.1803 78.0427 83.1803 76.4677L83.1736 76.1669C83.1428 75.6607 82.8983 75.3982 82.3958 75.3239L81.3061 75.1582C81.1718 75.1402 81.1231 75.0757 81.1718 74.9564C81.2558 74.7532 81.3361 74.5424 81.4546 74.3594C81.4988 74.2919 81.6481 74.2657 81.7486 74.2679C82.2691 74.2754 82.7896 74.3144 83.3101 74.3137L87.8408 74.2867C88.7138 74.2859 89.5568 74.4382 90.3398 74.8559C91.2016 75.3149 91.6838 76.0252 91.8218 76.9927C91.9658 78.0089 91.6576 78.8654 90.9151 79.5457C90.6098 79.8262 90.2146 80.0092 89.8606 80.2372L89.7451 80.3092C90.0736 80.4299 90.3863 80.5342 90.6908 80.6587C91.5818 81.0239 92.2906 81.5947 92.6656 82.5059C92.9618 83.2252 92.9618 83.9752 92.7863 84.7207C92.5133 85.8877 91.7446 86.6639 90.7448 87.2512C89.8066 87.8024 88.7911 88.1234 87.7096 88.1774C86.7121 88.2277 85.7101 88.2089 84.7103 88.2202L84.1313 88.2232C83.1683 88.2014 82.2046 88.1767 81.2408 88.1512L81.1531 88.1272ZM85.3058 83.5604H85.3156C85.3156 84.0539 85.3088 84.5474 85.3178 85.0409C85.3238 85.3604 85.3126 85.6889 85.3816 85.9964C85.4851 86.4562 85.6951 86.8709 86.2111 87.0029C86.9078 87.1822 87.6196 87.2182 88.3246 87.0959C89.2073 86.9422 89.9116 86.4997 90.2978 85.6589C90.5843 85.0342 90.6271 84.3719 90.5288 83.6954C90.3983 82.8044 89.9251 82.1579 89.1383 81.7342C88.6223 81.4559 88.0718 81.2857 87.4853 81.2632C86.8283 81.2384 86.1706 81.2369 85.5136 81.2167C85.3291 81.2114 85.3036 81.3052 85.3043 81.4567C85.3081 82.1572 85.3058 82.8584 85.3058 83.5604ZM86.7046 80.2042C87.0638 80.1862 87.4703 80.1809 87.8746 80.1404C88.6486 80.0632 89.1938 79.6739 89.4781 78.9337C89.6228 78.5579 89.6168 78.1709 89.6206 77.7802C89.6318 76.7624 89.0378 75.9284 88.0711 75.5834C87.3248 75.3172 86.5553 75.3127 85.7813 75.3337C85.4678 75.3419 85.3276 75.4792 85.3231 75.7949L85.2766 79.9117C85.2743 80.0752 85.3448 80.1457 85.5038 80.1509L86.7046 80.2042Z" fill="#94795D"/>
<path id="Vector_2" fill-rule="evenodd" clip-rule="evenodd" d="M7.90712 87.3361L7.85237 88.0441C7.34237 88.0441 6.87212 88.0403 6.40187 88.0456C5.51612 88.0546 4.63037 88.0688 3.74387 88.0816L3.65837 88.0868C3.53162 88.0718 3.30137 88.0718 3.29537 88.0343C3.25787 87.8236 3.26987 87.6023 3.27962 87.3841C3.28037 87.3593 3.36662 87.3278 3.41687 87.3158L4.10612 87.1621C4.53587 87.0503 4.68737 86.8651 4.70762 86.4211C4.73087 85.9208 4.75412 85.4198 4.75637 84.9196C4.76312 83.6881 4.75562 82.4581 4.76087 81.2266C4.76162 80.9386 4.66187 80.7241 4.39337 80.6071C4.07387 80.4661 3.75287 80.3281 3.42962 80.1976C3.27662 80.1361 3.07787 80.1023 3.09587 79.8968C3.11387 79.6876 3.30662 79.6328 3.48812 79.5916C4.23962 79.4198 4.99187 79.2526 5.74112 79.0696C5.98262 79.0103 6.21362 78.9106 6.50237 78.8101C6.51737 78.9661 6.54512 79.1146 6.54212 79.2631L6.49787 79.9688C6.49712 80.0483 6.53837 80.1548 6.59762 80.1991C6.63362 80.2268 6.75437 80.1766 6.81437 80.1301C7.45487 79.6426 8.13287 79.2218 8.90612 78.9766C10.1039 78.5963 11.1321 78.9488 11.8521 79.9816C12.1056 80.3453 12.1064 80.3453 12.4581 80.0911C13.0619 79.6523 13.6934 79.2653 14.3999 79.0103C15.9509 78.4501 17.4411 79.1611 17.9804 80.7233C18.1769 81.2903 18.2519 81.8761 18.2504 82.4746L18.2361 86.4481C18.2354 86.7758 18.3441 86.9626 18.6561 87.0646C19.0064 87.1793 19.3694 87.2581 19.7639 87.3616L19.6724 88.0448C19.2239 88.0448 18.8114 88.0418 18.3989 88.0456C17.3909 88.0546 16.3829 88.0598 15.3756 88.0831C15.2001 88.0876 15.1544 88.0441 15.1454 87.8798C15.1161 87.3541 15.1116 87.3548 15.6066 87.2363L15.7731 87.1936C16.2569 87.0616 16.4181 86.9131 16.4219 86.4226C16.4331 85.0141 16.4624 83.6018 16.3911 82.1963C16.3169 80.7383 15.1596 79.9621 13.7466 80.3356C13.2854 80.4571 12.8676 80.6701 12.4791 80.9461C12.3479 81.0398 12.3231 81.1478 12.3336 81.3121C12.3734 81.9331 12.3981 82.5548 12.4034 83.1766C12.4124 84.2648 12.3989 85.3531 12.4034 86.4421C12.4049 86.8831 12.5556 87.0518 12.9914 87.1538L13.6386 87.3031L13.7586 87.3301C13.7676 87.5371 13.7759 87.7441 13.7661 87.9511C13.7601 88.0808 13.6596 88.0921 13.5471 88.0898C12.9179 88.0741 12.2879 88.0531 11.6586 88.0546C10.8929 88.0561 10.1279 88.0778 9.36287 88.0913H9.18287C9.18287 87.8716 9.17237 87.6616 9.19037 87.4523C9.19412 87.4021 9.28262 87.3316 9.34337 87.3158L10.0979 87.1561C10.4181 87.0773 10.5711 86.9131 10.5891 86.5876C10.6746 85.0801 10.7361 83.5718 10.5944 82.0651C10.5666 81.7726 10.4714 81.4756 10.3499 81.2063C9.96362 80.3528 9.09437 79.9966 8.09162 80.2531C7.61537 80.3746 7.18562 80.5928 6.77912 80.8681C6.58712 80.9986 6.49562 81.1711 6.49562 81.3893C6.49562 82.8931 6.50087 84.3968 6.50537 85.8998L6.51362 86.4796C6.52262 86.8838 6.69437 87.0968 7.09562 87.1838C7.35362 87.2423 7.61462 87.2821 7.90712 87.3361Z" fill="#50382B"/>
<path id="Vector_3" fill-rule="evenodd" clip-rule="evenodd" d="M53.2509 78.9639C53.3671 79.5294 53.3649 80.0379 52.9494 80.4234C52.5369 80.8066 52.0149 80.6776 51.5056 80.5921C51.5529 80.8606 51.6054 81.0886 51.6309 81.3196C51.8161 83.0364 51.0774 84.3106 49.4851 85.0389C48.8836 85.3134 48.2454 85.4154 47.5936 85.4679C47.2696 85.4934 46.9861 85.7409 46.9554 86.0071C46.9239 86.2771 47.0934 86.5546 47.4324 86.6356C47.8321 86.7309 48.2491 86.7578 48.6594 86.8051C49.5399 86.9056 50.4301 86.9513 51.3001 87.1088C52.6156 87.3458 53.3499 88.4941 53.1181 89.8156C52.9119 90.9916 52.2309 91.8473 51.2814 92.5036C49.6816 93.6121 47.9266 93.9361 46.0576 93.3706C44.9889 93.0466 44.2351 92.3439 43.9749 91.2069C43.8444 90.6376 43.9831 90.1224 44.4114 89.7361C44.9206 89.2786 45.4749 88.8706 46.0081 88.4386L46.1806 88.2653L45.9826 88.1266C45.4389 87.8686 45.0039 87.5154 44.8351 86.9019C44.7774 86.6941 44.8374 86.5576 45.0136 86.4511C45.3136 86.2703 45.6121 86.0866 45.9084 85.8998C46.0479 85.8128 46.1859 85.7229 46.3156 85.6224C46.4926 85.4874 46.4769 85.3869 46.2654 85.3089C45.7734 85.1274 45.3361 84.8641 44.9971 84.4591C44.4309 83.7834 44.2704 82.9786 44.3169 82.1288C44.3896 80.8013 45.1104 79.9269 46.2819 79.3644C47.6746 78.6961 49.0719 78.6541 50.4916 79.2631C51.0166 79.4881 51.5701 79.5361 52.1334 79.4971C52.5541 79.4671 52.9216 79.3081 53.2509 78.9639ZM48.1186 88.4746C47.0731 88.4656 46.7454 88.5946 46.1319 89.2194C45.4449 89.9199 45.4486 90.8911 46.1341 91.5946C46.6546 92.1279 47.3041 92.3776 48.0264 92.4526C48.8701 92.5396 49.7011 92.5044 50.4676 92.0821C51.2851 91.6299 51.6916 90.7899 51.5079 89.9439C51.3556 89.2456 50.8411 88.9261 50.2149 88.7423C49.5024 88.5338 48.7659 88.4941 48.1186 88.4746ZM46.0651 81.7936C46.1034 82.0839 46.1191 82.3779 46.1836 82.6621C46.3509 83.3986 46.6711 84.0459 47.4039 84.3736C48.2641 84.7599 49.3629 84.5941 49.7394 83.3866C49.9974 82.5594 49.9659 81.7381 49.6546 80.9311C49.5159 80.5711 49.2924 80.2666 48.9721 80.0431C48.2251 79.5219 46.8774 79.4529 46.3284 80.6049C46.1499 80.9791 46.0801 81.3774 46.0651 81.7936Z" fill="#4F382B"/>
<path id="Vector_4" fill-rule="evenodd" clip-rule="evenodd" d="M35.5131 78.7784C35.5408 78.9066 35.5963 79.0521 35.5978 79.1984C35.6001 79.4766 35.5701 79.7549 35.5543 80.0331V80.2746L35.7898 80.0946C36.4348 79.5636 37.1278 79.1114 37.9348 78.8676C39.3913 78.4289 40.8463 79.2261 41.3211 80.7096C41.5011 81.2736 41.5723 81.8534 41.5791 82.4429C41.5941 83.7524 41.6031 85.0619 41.6166 86.3714C41.6211 86.8416 41.6751 86.9256 42.1198 87.0614C42.3718 87.1386 42.6321 87.1926 42.8923 87.2331C43.0356 87.2556 43.0971 87.3119 43.0896 87.4521L43.0911 87.5811C43.0858 88.1234 43.0483 88.1481 42.5226 88.1466C41.2641 88.1444 40.0063 88.1519 38.7478 88.1624C38.3728 88.1654 38.3721 88.1766 38.3346 87.8061L38.3271 87.5931C38.3503 87.2736 38.3578 87.2766 38.6721 87.2301C38.8836 87.1986 39.0936 87.1499 39.2998 87.0959C39.5121 87.0411 39.6141 86.8844 39.6426 86.6744C39.6568 86.5679 39.6756 86.4614 39.6748 86.3549C39.6568 84.9239 39.6801 83.4914 39.6021 82.0626C39.5391 80.9069 38.6571 80.2184 37.4968 80.2971C36.9276 80.3369 36.4131 80.5266 35.9436 80.8544C35.6338 81.0711 35.5716 81.3839 35.5731 81.7206C35.5791 83.0586 35.5918 84.3966 35.6061 85.7354C35.6091 86.0286 35.6173 86.3219 35.6451 86.6129C35.6743 86.9309 35.7861 87.0591 36.0981 87.1281C36.3966 87.1941 36.7011 87.2324 37.0198 87.2856L37.0468 87.5316C37.0573 88.1054 36.9973 88.1481 36.4401 88.1459C35.1388 88.1406 33.8376 88.1489 32.5371 88.1631C32.3323 88.1661 32.2453 88.1016 32.2506 87.9021L32.2476 87.8166C32.2138 87.2999 32.2288 87.2804 32.7178 87.1964L32.9488 87.1499C33.4783 87.0306 33.6141 86.8896 33.6216 86.3519C33.6463 84.6486 33.6553 82.9461 33.6726 81.2429C33.6748 80.9984 33.5826 80.8086 33.3546 80.7074C33.0351 80.5664 32.7126 80.4321 32.3893 80.2994C32.2108 80.2259 32.0068 80.1794 32.0001 79.9326C31.9956 79.7586 32.1816 79.6049 32.4358 79.5531C32.9466 79.4496 33.4618 79.3634 33.9666 79.2366C34.4691 79.1114 34.9626 78.9434 35.5131 78.7784Z" fill="#4F372B"/>
<path id="Vector_5" fill-rule="evenodd" clip-rule="evenodd" d="M63.6489 83.2274C63.6249 84.8182 63.2116 86.1044 62.0866 87.0697C60.6616 88.2944 58.4386 88.7107 56.6214 87.7949C55.8459 87.4042 55.2759 86.8049 54.9046 86.0272C54.3354 84.8309 54.1929 83.5732 54.4899 82.2847C54.7839 81.0104 55.5556 80.0872 56.7106 79.4894C57.8986 78.8752 59.1496 78.6352 60.4689 78.9577C62.1376 79.3649 63.3369 80.7254 63.5754 82.4579C63.6181 82.7617 63.6346 83.0692 63.6489 83.2274ZM61.7161 84.0892L61.6516 84.0817C61.6516 83.9317 61.6599 83.7817 61.6501 83.6317C61.5954 82.6972 61.3854 81.8069 60.8439 81.0247C60.3301 80.2837 59.6304 79.8464 58.7199 79.7827C57.7006 79.7107 56.8441 80.2807 56.5434 81.3217C56.0919 82.8847 56.2449 84.4079 57.0384 85.8397C57.3841 86.4637 57.8964 86.9242 58.5826 87.1664C59.9274 87.6397 61.1199 87.0269 61.4701 85.6499C61.5991 85.1414 61.6366 84.6097 61.7161 84.0892Z" fill="#4F382B"/>
<path id="Vector_6" fill-rule="evenodd" clip-rule="evenodd" d="M30.6141 83.3505C30.5863 84.492 30.3171 85.5473 29.6121 86.4645C28.8568 87.447 27.8188 87.972 26.6383 88.1933C25.2426 88.4543 23.9316 88.2173 22.8103 87.2805C22.2778 86.835 21.9141 86.2643 21.6741 85.6148C21.2803 84.5498 21.1821 83.4585 21.4243 82.3463C21.6831 81.156 22.3551 80.2463 23.3968 79.6358C24.6013 78.9315 25.9011 78.6173 27.2893 78.9338C29.0743 79.3418 30.1048 80.505 30.4858 82.266C30.5623 82.6215 30.5728 82.989 30.6141 83.3505ZM28.6596 84.1035L28.6078 84.096V83.8815C28.5786 82.8345 28.3738 81.837 27.7491 80.967C27.2863 80.3213 26.6668 79.9163 25.8726 79.803C24.5781 79.6185 23.7321 80.3865 23.4516 81.4298C23.0856 82.7925 23.2003 84.1388 23.7666 85.431C24.1198 86.2365 24.6778 86.8643 25.5351 87.1688C26.8716 87.6435 28.0821 87.015 28.4203 85.6433C28.5448 85.1415 28.5823 84.618 28.6596 84.1035Z" fill="#4F372B"/>
<path id="Vector_7" fill-rule="evenodd" clip-rule="evenodd" d="M61.7715 25.158C62.6918 27.8182 63.3533 30.534 63.5715 33.348C63.8415 36.84 63.7185 40.308 62.982 43.7422L62.8875 44.0167C62.6565 44.0175 62.421 43.9882 62.1953 44.0235C60.288 44.3235 58.383 44.634 56.4773 44.943C54.507 45.2625 52.5353 45.5692 50.5688 45.9097C49.872 46.0297 49.0095 45.8865 48.7283 46.8495L48.5933 46.8952L48.6885 41.1367L48.5918 27.2422L49.5098 27.0847C51.0105 26.8395 52.5113 26.5897 54.0143 26.3505C55.8068 26.0662 57.6008 25.7887 59.3948 25.5112C60.1868 25.3897 60.9795 25.2765 61.7715 25.158Z" fill="#439934"/>
<path id="Vector_8" fill-rule="evenodd" clip-rule="evenodd" d="M46.6989 63.6832C45.7307 62.8507 44.7287 62.0549 43.8009 61.1789C38.8074 56.4689 35.1542 50.9242 33.3549 44.2394C32.8592 42.4004 32.5292 40.5307 32.4227 38.6302C32.3477 37.2997 32.2404 35.9579 32.3349 34.6342C32.5847 31.1144 33.0939 27.6284 34.1259 24.2377L34.1829 24.1589C34.2834 24.2924 34.4274 24.4109 34.4784 24.5617C35.4864 27.5287 36.4862 30.4987 37.4814 33.4709C40.6082 42.8092 43.7312 52.1497 46.8632 61.4864C46.9247 61.6687 47.0829 61.8179 47.1969 61.9822L46.6989 63.6832Z" fill="#45A538"/>
<path id="Vector_9" fill-rule="evenodd" clip-rule="evenodd" d="M61.7718 25.158C60.979 25.2757 60.1863 25.3897 59.395 25.5112C57.601 25.7887 55.807 26.0662 54.0145 26.3505C52.5123 26.589 51.0115 26.8387 49.51 27.0847L48.592 27.2422L48.5845 26.6437C48.5538 26.1517 48.5028 25.6597 48.496 25.1677L48.3933 15.7522C48.3693 13.788 48.3333 11.8237 48.2935 9.86023C48.2688 8.63998 48.2425 7.41898 48.1878 6.20023C48.1578 5.54548 48.052 4.89373 48.01 4.23898C47.9853 3.86248 48.0183 3.48298 48.0265 3.10498C48.4945 4.01173 48.9528 4.92523 49.4335 5.82523C50.1933 7.24798 51.4045 8.29648 52.4958 9.44023C56.8053 13.9635 59.8645 19.2195 61.7718 25.158Z" fill="#46A037"/>
<path id="Vector_10" fill-rule="evenodd" clip-rule="evenodd" d="M48.5932 46.8953L48.7282 46.8495C49.0094 45.8865 49.8719 46.0298 50.5687 45.9098C52.5352 45.5693 54.5069 45.2625 56.4772 44.943C58.3829 44.6348 60.2879 44.3243 62.1952 44.0235C62.4209 43.9883 62.6564 44.0175 62.8874 44.0168C62.5312 45.2888 62.2507 46.5885 61.7984 47.8253C61.2847 49.2278 60.6637 50.5973 60.0044 51.9398C59.0189 53.946 57.7912 55.818 56.3647 57.5333C55.2652 58.8548 54.0397 60.078 52.8119 61.2848C52.1324 61.9515 51.3329 62.4953 50.5874 63.0953L50.3939 62.9633L49.6987 62.3693L48.9794 60.7913C48.4837 58.9448 48.2242 57.0653 48.1807 55.1543L48.1942 54.8333L48.2924 53.4428C48.3247 52.968 48.3682 52.494 48.3884 52.0193C48.4604 50.3123 48.5249 48.6038 48.5932 46.8953Z" fill="#409433"/>
<path id="Vector_11" fill-rule="evenodd" clip-rule="evenodd" d="M48.5939 46.8953C48.5264 48.6038 48.4619 50.313 48.3891 52.0215C48.3689 52.497 48.3261 52.971 48.2931 53.445L47.8551 53.6108C46.8816 50.745 45.9074 47.9093 44.9549 45.0668C43.3791 40.3635 41.8229 35.6535 40.2494 30.9488C38.9796 27.1523 37.6986 23.358 36.4109 19.5668C36.3501 19.3898 36.1776 19.2503 36.0576 19.0935L38.8626 13.9358C38.9594 14.103 39.0861 14.2598 39.1469 14.4398C40.4444 18.2798 41.7396 22.1205 43.0236 25.965C44.6946 30.9675 46.3544 35.9723 48.0239 40.9755C48.0906 41.175 48.2001 41.3595 48.3051 41.5838L48.6891 41.1368C48.6569 43.0568 48.6254 44.9753 48.5939 46.8953Z" fill="#4FAA41"/>
<path id="Vector_12" fill-rule="evenodd" clip-rule="evenodd" d="M36.0576 19.0935C36.1784 19.2503 36.3509 19.3898 36.4109 19.5668C37.6986 23.358 38.9796 27.1515 40.2494 30.9488C41.8229 35.6535 43.3791 40.3635 44.9549 45.0668C45.9074 47.9093 46.8816 50.7443 47.8551 53.6108L48.2931 53.445L48.1949 54.8355L48.1056 55.1558C47.9534 56.6775 47.8251 58.2023 47.6391 59.721C47.5461 60.4823 47.3474 61.2293 47.1966 61.9823C47.0834 61.818 46.9244 61.6688 46.8629 61.4865C43.7301 52.1498 40.6079 42.8093 37.4811 33.471C36.4859 30.4988 35.4854 27.5288 34.4781 24.5618C34.4271 24.411 34.2831 24.2925 34.1826 24.159L36.0576 19.0935Z" fill="#4AA73C"/>
<path id="Vector_13" fill-rule="evenodd" clip-rule="evenodd" d="M48.6878 41.1366L48.3038 41.5836C48.1988 41.3593 48.0893 41.1748 48.0226 40.9753C46.3531 35.9721 44.6933 30.9673 43.0223 25.9648C41.7383 22.1203 40.4431 18.2796 39.1456 14.4396C39.0848 14.2596 38.9581 14.1028 38.8613 13.9356L42.3301 9.37256C42.4396 9.51806 42.5956 9.64781 42.6518 9.81206C43.6148 12.6321 44.5688 15.4543 45.5183 18.2788C46.4048 20.9173 47.2778 23.5588 48.1748 26.1928C48.2348 26.3691 48.4441 26.4936 48.5836 26.6436L48.5911 27.2421L48.6878 41.1366Z" fill="#57AE47"/>
<path id="Vector_14" fill-rule="evenodd" clip-rule="evenodd" d="M48.5836 26.6437C48.4433 26.4945 48.2348 26.37 48.1748 26.193C47.2786 23.559 46.4048 20.9175 45.5183 18.279C44.5688 15.4545 43.6148 12.6322 42.6518 9.81221C42.5956 9.64796 42.4396 9.51821 42.3301 9.37271C43.4581 8.26796 44.5508 7.12346 45.7246 6.06971C46.7678 5.13371 47.6063 4.13021 47.6453 2.65046L47.7278 2.35571L48.0248 3.10421C48.0173 3.48221 47.9836 3.86171 48.0083 4.23821C48.0511 4.89296 48.1568 5.54471 48.1861 6.19946C48.2408 7.41821 48.2671 8.63921 48.2918 9.85946C48.3316 11.823 48.3676 13.7872 48.3916 15.7515L48.4943 25.167C48.5018 25.6597 48.5536 26.1517 48.5836 26.6437Z" fill="#60B24F"/>
<path id="Vector_15" fill-rule="evenodd" clip-rule="evenodd" d="M47.197 61.9814C47.3477 61.2284 47.5465 60.4814 47.6395 59.7202C47.8255 58.2022 47.9537 56.6767 48.106 55.1549L48.1442 55.1489L48.1817 55.1557C48.2252 57.0667 48.4847 58.9462 48.9805 60.7927C48.8792 60.9262 48.7375 61.0439 48.6835 61.1939C48.2672 62.3684 47.8742 63.5527 47.4557 64.7264C47.3987 64.8869 47.2382 65.0122 47.1265 65.1524L46.6982 63.6824L47.197 61.9814Z" fill="#A9AA88"/>
<path id="Vector_16" fill-rule="evenodd" clip-rule="evenodd" d="M47.126 65.1532C47.2377 65.0122 47.3982 64.8877 47.4552 64.7272C47.8737 63.5535 48.2667 62.3692 48.683 61.1947C48.7362 61.0447 48.8787 60.927 48.98 60.7935L49.6992 62.3715C49.5575 62.5725 49.361 62.7547 49.2822 62.979L47.9052 67.023C47.8482 67.1857 47.6555 67.2997 47.525 67.437L47.126 65.1532Z" fill="#B6B598"/>
<path id="Vector_17" fill-rule="evenodd" clip-rule="evenodd" d="M47.5244 67.4361C47.6542 67.2989 47.8477 67.1849 47.9047 67.0221L49.2817 62.9781C49.3597 62.7539 49.5569 62.5716 49.6987 62.3706L50.3947 62.9639C50.0587 63.2961 49.8719 63.6801 49.9844 64.1654L49.7729 64.8576C49.6769 64.9761 49.5374 65.0796 49.4902 65.2154C49.0094 66.5924 48.5512 67.9769 48.0667 69.3531C48.0052 69.5271 47.8349 69.6644 47.7157 69.8189L47.5244 67.4361Z" fill="#C2C1A7"/>
<path id="Vector_18" fill-rule="evenodd" clip-rule="evenodd" d="M47.7161 69.8182C47.8361 69.6637 48.0064 69.5264 48.0671 69.3524C48.5516 67.9762 49.0106 66.5917 49.4906 65.2147C49.5379 65.0789 49.6774 64.9762 49.7734 64.8569L49.4816 68.0339C49.4036 68.1239 49.2911 68.2027 49.2536 68.3069L48.2831 71.0879C48.2149 71.2777 48.0844 71.4472 47.9824 71.6249C47.8916 71.5064 47.7296 71.3917 47.7221 71.2687C47.6936 70.7872 47.7139 70.3019 47.7161 69.8182Z" fill="#CECDB7"/>
<path id="Vector_19" fill-rule="evenodd" clip-rule="evenodd" d="M47.9824 71.6257C48.0844 71.4479 48.2149 71.2784 48.2832 71.0887L49.2537 68.3077C49.2912 68.2027 49.4044 68.1247 49.4817 68.0347L49.4892 70.1197L48.7909 71.9099L47.9824 71.6257Z" fill="#DBDAC7"/>
<path id="Vector_20" fill-rule="evenodd" clip-rule="evenodd" d="M48.791 71.9099L49.4893 70.1196L49.6333 72.2376L48.791 71.9099Z" fill="#EBE9DC"/>
<path id="Vector_21" fill-rule="evenodd" clip-rule="evenodd" d="M49.9847 64.1656C49.8729 63.6811 50.0589 63.2971 50.3949 62.9641L50.5884 63.0961L49.9847 64.1656Z" fill="#CECDB7"/>
<path id="Vector_22" fill-rule="evenodd" clip-rule="evenodd" d="M48.1812 55.1565L48.1437 55.1497L48.1055 55.1557L48.1947 54.8354L48.1812 55.1565Z" fill="#4FAA41"/>
</g>
</svg>
