<svg width="96" height="96" viewBox="0 0 96 96" fill="none" xmlns="http://www.w3.org/2000/svg">
<g clip-path="url(#clip0_1648_6356)">
<rect width="96" height="96" fill="white"/>
<path d="M71.2519 90.008C70.8959 90.196 70.9159 90.272 71.2719 90.092C71.3761 90.0473 71.4711 89.9836 71.5519 89.904C71.5519 89.84 71.5439 89.848 71.2519 90.008ZM71.9639 89.632C71.7959 89.764 71.7959 89.772 71.9999 89.668C72.1119 89.612 72.2079 89.548 72.2079 89.528C72.2079 89.452 72.1599 89.472 71.9639 89.632ZM72.4319 89.348C72.2639 89.48 72.2639 89.488 72.4679 89.384C72.5799 89.328 72.6759 89.264 72.6759 89.244C72.6759 89.168 72.6279 89.188 72.4319 89.348ZM72.8999 89.068C72.7319 89.2 72.7319 89.208 72.9359 89.104C73.0479 89.048 73.1439 88.984 73.1439 88.964C73.1439 88.888 73.0959 88.908 72.8999 89.068ZM73.5479 88.648C73.2199 88.856 73.1159 88.996 73.4079 88.836C73.6159 88.716 73.9519 88.46 73.8959 88.452C73.7732 88.5047 73.6565 88.5704 73.5479 88.648ZM44.8559 0.0240383C44.6479 0.0440383 43.9919 0.108038 43.3999 0.156038C29.7679 1.38404 16.9959 8.74004 8.90791 20.048C4.43655 26.2546 1.53017 33.4492 0.435906 41.02C0.0519062 43.656 0.00390625 44.436 0.00390625 48.012C0.00390625 51.588 0.0519062 52.364 0.435906 55.004C3.04391 73.028 15.8719 88.172 33.2679 93.784C36.3839 94.788 39.6679 95.472 43.3999 95.884C44.8559 96.044 51.1399 96.044 52.5959 95.884C59.0399 95.172 64.5039 93.576 69.8879 90.828C70.7119 90.404 70.8719 90.292 70.7599 90.2C68.13 86.7251 65.5246 83.2317 62.9439 79.72L55.2679 69.352L45.6519 55.12C42.4547 50.3578 39.2266 45.6164 35.9679 40.896C35.9319 40.888 35.8919 47.212 35.8759 54.932C35.8479 68.452 35.8399 68.996 35.6679 69.316C35.5046 69.6899 35.2121 69.9924 34.8439 70.168C34.5439 70.32 34.2799 70.348 32.8639 70.348H31.2399L30.8079 70.076C30.5414 69.9081 30.3246 69.6719 30.1799 69.392L29.9839 68.968L30.0039 50.156L30.0319 31.336L30.3239 30.972C30.5201 30.7415 30.7558 30.5478 31.0199 30.4C31.4039 30.212 31.5559 30.192 33.1799 30.192C35.0959 30.192 35.4119 30.268 35.9119 30.812C39.8045 36.605 43.6645 42.4198 47.4919 48.256C53.7239 57.704 62.2399 70.604 66.4279 76.94L74.0279 88.452L74.4119 88.2C78.0689 85.7675 81.3848 82.8579 84.2719 79.548C90.3198 72.6267 94.242 64.1073 95.5679 55.012C95.9519 52.376 95.9999 51.596 95.9999 48.02C95.9999 44.444 95.9519 43.668 95.5679 41.028C92.9599 23.004 80.1319 7.86004 62.7359 2.24804C59.485 1.21303 56.137 0.512073 52.7439 0.156038C51.8439 0.0640383 45.6399 -0.0399617 44.8639 0.0360383L44.8559 0.0240383ZM64.5039 29.056C64.7276 29.1685 64.9267 29.3244 65.0895 29.5146C65.2522 29.7048 65.3755 29.9256 65.4519 30.164C65.5279 30.408 65.5439 35.624 65.5279 47.38L65.4999 64.252L62.5239 59.692L59.5399 55.132V42.868C59.5399 34.94 59.5759 30.484 59.6319 30.268C59.6998 30.0187 59.8168 29.7856 59.9762 29.5822C60.1356 29.3789 60.334 29.2095 60.5599 29.084C60.9439 28.888 61.0839 28.868 62.5599 28.868C63.9479 28.868 64.1919 28.888 64.5039 29.056Z" fill="black"/>
</g>
<defs>
<clipPath id="clip0_1648_6356">
<rect width="96" height="96" fill="white"/>
</clipPath>
</defs>
</svg>
