<svg width="96" height="96" viewBox="0 0 96 96" fill="none" xmlns="http://www.w3.org/2000/svg">
<g id="nodejs (1) 1" clip-path="url(#clip0_1648_6360)">
<g id="Group">
<path id="Vector" d="M43.6894 1.21872C46.3001 -0.137875 49.7006 -0.144003 52.3091 1.21872C65.4323 7.95029 78.5595 14.6713 91.6804 21.407C94.1483 22.6689 95.799 25.1622 95.7739 27.7437V68.2434C95.7923 70.9317 93.9784 73.4846 91.3748 74.7179C78.2948 81.4124 65.2215 88.1151 52.1438 94.8095C49.479 96.1927 46.0103 96.0861 43.4288 94.5896C39.5074 92.5259 35.5793 90.4725 31.6575 88.4109C30.8561 87.9772 29.9528 87.632 29.3869 86.9266C29.8871 86.3145 30.7815 86.2383 31.5083 85.9711C33.1451 85.4985 34.6485 84.7401 36.1523 84.0041C36.5325 83.7678 36.9968 83.8584 37.3613 84.0698C40.7145 85.8151 44.0381 87.6112 47.4026 89.3399C48.1204 89.7161 48.8471 89.2167 49.4606 88.9062C62.2961 82.3207 75.1474 75.76 87.9806 69.1724C88.4561 68.9648 88.719 68.5065 88.6804 68.0337C88.6894 54.6737 88.6826 41.3113 88.6849 27.9513C88.7393 27.4148 88.3973 26.9215 87.8629 26.702C74.8283 20.0381 61.8004 13.3641 48.768 6.69855C48.5422 6.55763 48.2747 6.48202 48.0007 6.48166C47.7267 6.48129 47.459 6.55619 47.2328 6.69651C34.2004 13.3641 21.1748 20.0443 8.14239 26.7077C7.60989 26.9277 7.25251 27.4128 7.31589 27.9513C7.31814 41.3113 7.31589 54.6737 7.31589 68.0357C7.29329 68.2664 7.34911 68.4979 7.47583 68.699C7.60254 68.9 7.79408 69.061 8.02464 69.1602C11.5024 70.9505 14.9846 72.7282 18.4646 74.5123C20.4251 75.4703 22.8323 76.0395 24.9923 75.3055C26.8984 74.6849 28.2345 72.9191 28.1981 71.0819C28.2161 57.7998 28.1891 44.5157 28.2116 31.2357C28.164 30.6461 28.7801 30.159 29.4116 30.2145C31.0826 30.2043 32.7559 30.194 34.4269 30.2185C35.1244 30.2043 35.6044 30.8391 35.5181 31.4332C35.5114 44.7993 35.5361 58.1658 35.5069 71.5319C35.5114 75.0941 33.8993 78.9702 30.2696 80.7132C25.7981 82.816 20.2714 82.37 15.8539 80.3537C12.0296 78.6209 8.38014 76.576 4.62376 74.7197C2.01339 73.4931 0.20851 70.93 0.226885 68.2437V27.7437C0.19951 25.1088 1.91589 22.5702 4.46064 21.3266C17.5384 14.6267 30.6139 7.9217 43.6894 1.21872Z" fill="#0C8418"/>
<path id="Vector_2" d="M55.0979 29.2731C60.8017 28.9398 66.9078 29.0757 72.0404 31.6265C76.0143 33.5812 78.2174 37.6837 78.2875 41.6915C78.1765 42.2321 77.554 42.5303 76.9855 42.4932C75.3307 42.4912 73.6754 42.5136 72.0205 42.483C71.3185 42.5075 70.9105 41.9199 70.8224 41.3565C70.3469 39.4389 69.1949 37.5397 67.2067 36.6147C64.1545 35.2275 60.6157 35.2973 57.2875 35.3262C54.8579 35.4433 52.2453 35.6343 50.1869 36.9313C48.6067 37.9138 48.1267 39.8971 48.6907 41.4944C49.2224 42.6413 50.6808 43.0113 51.874 43.3524C58.7478 44.9844 66.0318 44.8221 72.7743 46.9698C75.5658 47.8454 78.2965 49.5475 79.252 52.2008C80.5019 55.7569 79.954 60.0074 77.167 62.8622C74.9069 65.2115 71.6152 66.4901 68.332 67.1846C63.9644 68.0687 59.4318 68.0912 54.9963 67.6987C50.8255 67.267 46.4853 66.2723 43.2655 63.6925C40.5123 61.5223 39.1675 58.1409 39.301 54.8772C39.3329 54.3261 39.9374 53.9417 40.519 53.987C42.1855 53.9747 43.852 53.9707 45.5185 53.989C46.1842 53.9458 46.6777 54.468 46.7118 55.0376C47.0193 56.8646 47.7757 58.7822 49.5307 59.8655C52.9177 61.8491 57.1675 61.7133 61.0458 61.7688C64.2588 61.6394 67.8655 61.6003 70.4875 59.6724C71.8709 58.5729 72.2808 56.7332 71.9069 55.1506C71.5019 53.8144 69.9622 53.1918 68.6399 52.7846C61.8543 50.836 54.4889 51.5431 47.7689 49.3395C45.0408 48.4643 42.4027 46.8095 41.3545 44.2651C39.892 40.6641 40.5622 36.21 43.6413 33.4515C46.6435 30.7077 50.9774 29.6513 55.0979 29.2731Z" fill="#0C8418"/>
</g>
</g>
<defs>
<clipPath id="clip0_1648_6360">
<rect width="96" height="96" fill="white"/>
</clipPath>
</defs>
</svg>
