<svg width="96" height="96" viewBox="0 0 96 96" fill="none" xmlns="http://www.w3.org/2000/svg">
<g id="parcel" clip-path="url(#clip0_1648_6413)">
<g id="Group">
<path id="Vector" d="M52.6934 83.5624L79.0398 66.9018C79.1373 66.8418 79.2648 66.8681 79.3248 66.9656C79.3848 67.0631 79.3586 67.1906 79.2611 67.2506L52.8284 83.9637C52.7946 83.9862 52.7571 83.9974 52.7196 83.9974L52.6934 83.5624Z" fill="url(#paint0_linear_1648_6413)"/>
<path id="Vector_2" d="M52.7189 83.9975C52.6964 83.9975 52.6701 83.9937 52.6476 83.9862L16.7278 70.5992C16.619 70.558 16.5665 70.4418 16.6078 70.333C16.649 70.2243 16.7653 70.1718 16.874 70.213L52.7001 83.5625L52.7189 83.9975Z" fill="url(#paint1_linear_1648_6413)"/>
<path id="Vector_3" d="M90.4132 19.9909L86.2659 26.8569L69.6053 33.9404L68.679 34.3341L53.7059 48.3361C53.4171 48.6248 53.2221 49.0373 53.1884 49.2661C53.1734 49.3448 53.1059 49.3111 53.0422 49.3073C52.9747 49.3036 52.8809 49.3298 52.8734 49.2473C52.8659 48.9473 52.8322 48.6136 52.3484 48.3136L44.845 43.4538L39.3739 39.9064L23.962 35.9541L11.0625 32.6467L2.8916 19.9534L3.01535 19.811L3.02285 19.7997L33.6967 11.8275C33.7417 11.8125 33.7492 11.8198 33.7679 11.8463L44.23 27.5169L44.4362 27.8244C44.6612 28.1544 44.6837 28.3569 44.6837 28.5031H44.875C44.875 28.4919 44.875 28.4806 44.875 28.4694C44.875 28.4544 44.875 28.4356 44.8787 28.4169C44.8787 28.4056 44.8825 28.3944 44.8825 28.3794C44.8862 28.3644 44.8862 28.3494 44.89 28.3344C44.8937 28.3194 44.8937 28.3044 44.8975 28.2856C44.9087 28.2331 44.9237 28.1731 44.9387 28.1131C44.9425 28.0944 44.95 28.0756 44.9537 28.0606C44.9725 28.0006 44.9912 27.9369 45.0137 27.8769C45.025 27.8544 45.0325 27.8281 45.0437 27.8056C45.0737 27.7306 45.1037 27.6631 45.1375 27.6031C45.1675 27.5431 45.1975 27.4944 45.2275 27.4532L54.6583 13.7362C54.6808 13.7024 54.6921 13.6874 54.7408 13.6949L90.3532 19.8222L90.4132 19.9909Z" fill="#E8B67F"/>
<path id="Vector_4" d="M44.8449 43.4502H44.8411L39.3738 39.9066L23.9619 35.9542L44.6836 28.5033L44.7399 28.3945V28.5033L44.8449 43.4502Z" fill="url(#paint2_linear_1648_6413)"/>
<path id="Vector_5" d="M44.6837 28.5033L23.962 35.9505L22.0946 35.4705L11.0625 32.6394L2.8916 19.9461L3.02285 19.7924L33.6967 11.8202C33.7416 11.8052 33.7491 11.8125 33.7679 11.8389L44.23 27.5096L44.4362 27.8171C44.6612 28.1546 44.6837 28.357 44.6837 28.5033Z" fill="url(#paint3_linear_1648_6413)"/>
<path id="Vector_6" d="M44.7565 29.2944L25.1636 36.3366L22.1074 35.5529L44.2428 27.5957L44.4491 27.9032C44.674 28.2332 44.6965 28.4357 44.6965 28.5819H44.7528L44.7565 29.2944Z" fill="url(#paint4_linear_1648_6413)"/>
<path id="Vector_7" d="M11.3439 32.7144L11.0664 32.6431L2.89551 19.9499L3.01925 19.8074L11.3439 32.7144Z" fill="#D2A679"/>
<path id="Vector_8" d="M69.6047 33.9405L68.6785 34.3342L53.7053 48.3362C53.4166 48.6249 53.2216 49.0374 53.1878 49.2661C53.1728 49.3449 53.1053 49.3111 53.0416 49.3074C52.9741 49.3036 52.8803 49.3299 52.8728 49.2474C52.8653 48.9474 52.8316 48.6137 52.3479 48.3137L44.8444 43.4501L44.7432 28.5069V28.3982L44.8819 28.5069L69.6047 33.9405Z" fill="url(#paint5_linear_1648_6413)"/>
<path id="Vector_9" d="M90.4126 19.9911L86.2653 26.8571L71.1009 33.3031L69.6084 33.9368L44.8781 28.5033C44.8631 28.312 44.9944 27.877 45.1369 27.5996C45.1669 27.5396 45.1969 27.4908 45.2269 27.4496L54.6577 13.7326C54.6802 13.6988 54.6915 13.6838 54.7402 13.6913L90.3526 19.8186L90.4126 19.9911Z" fill="url(#paint6_linear_1648_6413)"/>
<path id="Vector_10" d="M71.1007 33.303L68.6821 34.3304L68.3708 34.6304L44.7393 29.4069L44.848 28.4994H44.878C44.863 28.3082 44.9942 27.8732 45.1367 27.5957L71.1007 33.303Z" fill="url(#paint7_linear_1648_6413)"/>
<path id="Vector_11" opacity="0.75" d="M45.3959 28.6157V43.8063L44.8447 43.4501H44.8409L44.1172 42.9776V28.7057L44.6834 28.5032H44.8747L45.3959 28.6157Z" fill="url(#paint8_linear_1648_6413)"/>
<path id="Vector_12" d="M52.573 83.7536L16.6231 70.3404C16.4206 70.2541 16.3906 70.0629 16.3794 69.8267C16.3794 69.8267 14.8344 39.1903 14.8307 39.1866C14.8269 39.1079 14.9244 39.0591 14.9169 39.0104C14.8907 38.8941 14.6694 38.4554 14.5982 38.4104L0 30.1157L0.123745 29.8345L39.3735 39.9066L52.3442 48.31C52.8279 48.61 52.8654 48.9437 52.8692 49.2437C52.8729 49.3262 52.9704 49.3 53.0379 49.3037C53.1054 49.3075 53.1692 49.3412 53.1842 49.2625C53.2179 49.0337 53.4129 48.6212 53.7017 48.3362L68.6748 34.3343L95.8275 22.7922L95.9925 23.021L81.3343 35.9017C81.0493 36.1867 80.9181 36.5355 80.9743 36.6779L79.4744 66.703C79.4519 66.8943 79.3619 66.9505 79.1707 67.0818L52.8917 83.7161C52.7867 83.7836 52.6742 83.8024 52.573 83.7536Z" fill="#BF9064"/>
<path id="Vector_13" d="M53.0382 49.3037L52.7794 83.7686C52.7082 83.7873 52.6369 83.7836 52.5694 83.7536L16.6196 70.3441C16.4171 70.2578 16.3871 70.0628 16.3758 69.8304C16.3758 69.8304 14.8271 39.194 14.8271 39.1903V39.1828C14.8271 39.1753 14.8271 39.1678 14.8309 39.1603C14.8309 39.1528 14.8346 39.149 14.8384 39.1453C14.8421 39.1378 14.8459 39.134 14.8496 39.1265C14.8534 39.119 14.8571 39.1153 14.8609 39.1078C14.8759 39.0853 14.8984 39.0628 14.9059 39.0441C14.9096 39.0403 14.9096 39.0366 14.9096 39.0328C14.9096 39.0328 14.9096 39.0328 14.9096 39.0291L52.8732 49.2587C52.8882 49.3262 52.9782 49.2999 53.0382 49.3037Z" fill="#BD8F63"/>
<path id="Vector_14" opacity="0.54" d="M52.7833 83.6674V83.7649C52.712 83.7837 52.6408 83.7799 52.5733 83.7499L16.6234 70.3405C16.4809 70.2805 16.4247 70.1642 16.3984 70.0217L52.7833 83.6674Z" fill="url(#paint9_linear_1648_6413)"/>
<path id="Vector_15" d="M36.5273 62.762L50.4468 67.3143L50.4131 80.8888L36.7523 75.8715L36.5273 62.762ZM43.5021 71.8816L43.5358 78.1701L50.2777 80.6469L50.2781 74.2365L43.5021 71.8816ZM45.4939 73.9132L46.8563 76.0814L48.1908 74.9122L48.4231 75.1774L47.0461 76.3837L48.4264 78.5804L48.2264 78.7061L46.8661 76.5412L45.538 77.7053L45.3057 77.4402L46.6763 76.2389L45.2939 74.0389L45.4939 73.9132ZM49.5056 76.3552V76.9739L49.8618 77.0902V77.7876L49.5056 77.6451V78.2076L48.7256 77.0227L49.5056 76.3552ZM48.3056 75.6015L48.5794 75.6877V78.1589L48.3056 78.0614V75.6015ZM36.8011 69.5529L36.9023 75.744L43.3446 78.0989L43.3071 71.8254L36.8011 69.5529ZM46.8732 76.9327L47.5782 78.0689L46.172 77.5589L46.8732 76.9327ZM47.9606 75.8902V77.5026L47.2294 76.4714L47.9606 75.8902ZM45.1708 74.454L45.4407 74.544V77.0114L45.1708 76.9177V74.454ZM45.7782 75.1177L46.4757 76.1939L45.7782 76.7302V75.1177ZM39.951 72.1291L40.2172 72.2153L40.2178 72.3737C41.0104 72.6925 41.7934 73.4875 42.1709 74.724C41.9234 74.3078 41.7059 74.229 41.3197 74.3603C41.1772 74.064 40.7572 73.9065 40.5059 74.064C40.4373 73.9335 40.3364 73.8357 40.2263 73.7729L40.2397 76.1264C40.2397 76.3439 40.0897 76.5389 39.7185 76.4639C39.381 76.3814 39.2422 76.1227 39.2797 75.6802L39.4672 75.7102C39.4672 76.0064 39.4897 76.1752 39.7147 76.2277C39.906 76.2727 39.9922 76.2014 39.9922 76.0252L39.9674 73.6908C39.8609 73.6831 39.7623 73.7094 39.6922 73.7715C39.606 73.554 39.1972 73.2616 38.8898 73.479C38.6723 73.1341 38.2635 73.0028 38.0348 73.2541C38.3267 72.371 39.1202 72.0614 39.9522 72.2847L39.951 72.1291ZM44.2183 74.4278L44.9795 75.6277L44.2258 76.2539L44.2408 75.6652L43.8733 75.579V74.8965L44.2183 75.024V74.4278ZM46.1495 74.6865L47.5744 75.204L46.8619 75.8302L46.1495 74.6865ZM43.4908 65.2369L43.5058 71.6491L50.2818 74.0115V67.4605L43.4908 65.2369ZM44.7545 70.7754L48.8044 72.1591V72.9653L44.7545 71.5704V70.7754ZM41.2672 72.3053C41.2934 72.3316 41.2934 72.6128 41.2072 72.6766C41.1659 72.6953 41.1022 72.6991 41.0497 72.6578C40.9972 72.6166 40.9672 72.5566 40.9897 72.4666C41.0122 72.3766 41.2372 72.2791 41.2672 72.3053ZM41.6421 71.6641C41.6721 71.6904 41.6721 71.9716 41.5821 72.0354C41.5409 72.0541 41.4771 72.0579 41.4247 72.0166C41.3722 71.9754 41.3422 71.9154 41.3647 71.8254C41.3872 71.7354 41.6121 71.6379 41.6421 71.6641ZM40.5922 71.6379C40.6222 71.6641 40.6222 71.9454 40.5322 72.0091C40.4909 72.0279 40.4272 72.0316 40.3747 71.9904C40.3222 71.9491 40.2922 71.8891 40.3147 71.7991C40.3372 71.7091 40.5622 71.6116 40.5922 71.6379ZM39.531 71.4841C39.561 71.5104 39.561 71.7916 39.471 71.8554C39.4297 71.8741 39.366 71.8779 39.3135 71.8366C39.261 71.7954 39.231 71.7354 39.2535 71.6454C39.276 71.5554 39.501 71.4579 39.531 71.4841ZM47.8819 67.2693L48.8644 69.208L48.1931 68.9792V71.7879L47.5219 71.5554L47.5257 68.7692L46.8582 68.5517L47.8819 67.2693ZM36.6736 63.002L36.7898 69.328L43.3108 71.5704L43.2546 65.1619L36.6736 63.002ZM45.6657 66.5306L46.6482 68.4692L45.977 68.2405V71.0491L45.3058 70.8167L45.3133 68.0305L44.642 67.813L45.6657 66.5306ZM38.1323 64.2732L38.6648 64.4494L38.9122 65.3456L38.6348 65.3269L39.426 67.2393L39.0172 65.6644L39.2497 65.6606L39.0135 64.5619L41.7621 65.4694V66.9805C41.7621 67.5543 41.1397 68.278 40.2622 67.918L40.2659 69.4367L41.5259 70.2467L38.4773 69.1892L39.7035 69.2492L39.681 67.7455C38.811 67.4868 38.181 66.4406 38.181 65.8031L38.1323 64.2732Z" fill="#322214"/>
<path id="Vector_16" d="M53.0379 49.3037C52.8879 49.3075 52.7754 49.5062 52.7717 49.6862L52.7379 49.7012L14.8269 39.1866C14.8232 39.1154 14.9057 39.0704 14.9132 39.0254C14.9169 39.0216 14.9169 39.0179 14.9132 39.0141C14.8869 38.8979 14.6657 38.4591 14.5944 38.4141L0 30.1157L0.123745 29.8345L39.3697 39.9028H39.3735L52.3442 48.3063C52.8279 48.61 52.8654 48.94 52.8692 49.24C52.8692 49.2437 52.8692 49.2512 52.8729 49.255C52.8879 49.3262 52.9779 49.3 53.0379 49.3037Z" fill="url(#paint10_linear_1648_6413)"/>
<path id="Vector_17" d="M81.3384 35.8981C81.0534 36.1831 80.9221 36.5318 80.9784 36.6743L53.3682 49.7388L53.3119 49.6938C53.3082 49.4763 53.1694 49.33 53.0645 49.3075C53.1207 49.315 53.1732 49.3338 53.1882 49.2625C53.1957 49.2175 53.2069 49.165 53.2257 49.1088C53.2407 49.06 53.2632 49.0076 53.2894 48.9513C53.3682 48.7713 53.4882 48.5763 53.6419 48.4038C53.6644 48.3813 53.6869 48.3551 53.7094 48.3326L68.6826 34.3306L95.8353 22.7886L96.0003 23.0173L81.3384 35.8981Z" fill="#CD9C6B"/>
<path id="Vector_18" d="M35.9986 52.7387C36.0399 52.7499 36.0549 52.7537 36.0549 52.7199L35.9124 45.0927C35.9011 44.834 35.8374 44.324 35.5262 44.1178L21.7005 35.7181L15.2207 34.0457L29.2714 42.4416C29.6239 42.6741 29.6539 43.109 29.6689 43.4315L29.8714 50.8487C29.8714 50.8862 29.8789 50.8937 29.9051 50.905L35.9986 52.7387Z" fill="url(#paint11_linear_1648_6413)"/>
<path id="Vector_19" d="M53.0379 49.3037C52.8842 49.3075 52.7717 49.5175 52.7717 49.7012C52.7679 49.7162 52.7417 49.7125 52.7379 49.7012C52.7079 49.2925 52.5392 48.835 52.3179 48.6737L39.2422 40.2441L39.3697 39.9028H39.3734L52.3442 48.3063C52.8279 48.61 52.8654 48.94 52.8692 49.24C52.8692 49.2437 52.8692 49.2512 52.8729 49.255C52.8879 49.3262 52.9779 49.3 53.0379 49.3037Z" fill="#D4A271"/>
<path id="Vector_20" d="M39.3697 39.9065L39.2422 40.244L0 30.1156L0.123745 29.8381L39.3697 39.9065Z" fill="#DEB37E"/>
<path id="Vector_21" d="M80.9821 36.6744L79.4822 66.6995C79.4597 66.8907 79.3697 66.9469 79.1784 67.0782L52.8995 83.7125C52.862 83.7388 52.8207 83.7538 52.7832 83.765L53.0419 49.3001C53.1094 49.3039 53.1732 49.3376 53.1882 49.2589C53.1882 49.2476 53.1919 49.2401 53.1919 49.2289L80.9746 36.6406C80.9746 36.6594 80.9784 36.6669 80.9821 36.6744Z" fill="#DBAD77"/>
<path id="Vector_22" opacity="0.54" d="M79.4822 66.688V66.703C79.4597 66.8942 79.3697 66.9505 79.1784 67.0817L52.8995 83.7161C52.862 83.7423 52.8207 83.7573 52.7832 83.7686V83.6711L79.4822 66.688Z" fill="url(#paint12_linear_1648_6413)"/>
<path id="Vector_23" d="M78.9914 53.6235L78.3915 65.8481L69.6543 71.2891L70.1043 58.5658L78.9914 53.6235ZM74.3191 62.4732L69.9768 65.0268L69.7705 71.0454L74.0941 68.3567L74.3191 62.4732ZM72.2455 65.0568L72.2375 65.2594C72.7562 65.0006 73.2464 65.1809 73.4529 66.0393C73.3104 65.8406 73.0517 65.9193 72.8792 66.3243C72.8004 66.1555 72.3992 66.2943 72.3392 66.6468C72.3072 66.5896 72.2496 66.5687 72.1836 66.5761L72.088 68.8967C72.0805 69.0954 72.0692 69.3092 71.818 69.4629C71.7017 69.5154 71.3942 69.5567 71.4355 69.1254L71.5817 69.0129C71.5705 69.2867 71.6417 69.3692 71.7917 69.2792C71.9717 69.1704 71.938 68.9979 71.9455 68.8367L72.0264 66.638C71.921 66.7074 71.8253 66.8285 71.7992 66.973C71.7542 66.838 71.3192 66.9205 71.2667 67.3068C71.143 67.1418 70.8055 67.303 70.678 67.7192C70.913 66.6382 71.4949 65.741 72.0744 65.3546L72.0805 65.1768L72.2455 65.0568ZM78.5827 59.9533L74.4429 62.4019L74.2141 68.3005L78.309 65.7243L78.5827 59.9533ZM77.304 61.9407L77.424 62.0532L76.5218 64.0999L77.2665 65.1281L77.1465 65.3831L76.404 64.3669L75.5116 66.3918L75.3878 66.2793L76.2968 64.2202L75.5266 63.1669L75.6616 62.9119L76.4149 63.9525L77.304 61.9407ZM74.7841 64.2919L75.2528 64.8618L74.7541 65.9343V65.4618L74.5441 65.5893L74.5554 64.9781L74.7653 64.8543L74.7841 64.2919ZM75.5941 63.5494L75.4966 65.8106L75.3278 65.9231L75.4216 63.6694L75.5941 63.5494ZM76.3853 64.7306L76.7865 65.2593L75.9241 65.7843L76.3853 64.7306ZM71.7917 64.8956C71.8105 64.8956 71.7992 65.1543 71.7355 65.2818C71.713 65.3268 71.6717 65.3756 71.638 65.3793C71.6042 65.3831 71.5892 65.3456 71.608 65.2481C71.6267 65.1506 71.773 64.8956 71.7917 64.8956ZM75.7816 63.8569L76.179 64.3481L75.7141 65.2668L75.7816 63.8569ZM72.9317 64.4269C72.9467 64.4306 72.9354 64.6894 72.8754 64.8131C72.8529 64.8581 72.8117 64.9068 72.7779 64.9106C72.7442 64.9143 72.7292 64.8768 72.7479 64.7794C72.7667 64.6819 72.9129 64.4269 72.9317 64.4269ZM74.5966 56.2372L70.2093 58.6971L69.9805 64.8356L74.3341 62.2707L74.5966 56.2372ZM77.4877 62.3982L77.3827 64.6556L77.2328 64.7531L77.334 62.4994L77.4877 62.3982ZM72.5192 64.2581C72.5379 64.2581 72.5267 64.5169 72.4629 64.6444C72.4404 64.6894 72.3992 64.7381 72.3654 64.7419C72.3317 64.7456 72.3167 64.7081 72.3354 64.6106C72.3542 64.5131 72.5004 64.2581 72.5192 64.2581ZM77.1015 63.0544L77.0415 64.4944L76.6515 64.0294L77.1015 63.0544ZM78.0315 62.3682L78.009 62.9232L78.2265 62.8032L78.2002 63.4182L77.9902 63.5419L77.9827 64.0481L77.529 63.5044L78.0315 62.3682ZM73.2204 63.5156C73.2392 63.5156 73.2279 63.7744 73.1642 63.9019C73.1417 63.9469 73.1004 63.9956 73.0667 63.9994C73.0329 64.0031 73.0179 63.9656 73.0367 63.8681C73.0554 63.7706 73.2017 63.5156 73.2204 63.5156ZM76.8878 62.6457L76.4228 63.7106L76.0215 63.1669L76.8878 62.6457ZM73.5766 57.5421L73.5204 59.0871C73.4979 59.6121 73.0779 60.5645 72.4517 60.962L72.3842 62.4207L73.2204 62.2407L71.1842 63.4182L72.0317 62.6119L72.0767 61.1795C71.533 61.4907 71.098 60.9133 71.1242 60.3283L71.173 58.9108L71.5405 58.7121L71.6605 59.3946L71.4617 59.5558L71.9005 60.827L71.7317 59.6683L71.8817 59.4958L71.7655 58.5846L73.5766 57.5421ZM78.9014 53.8448L74.7016 56.1922L74.4391 62.2257L78.6014 59.7358L78.9014 53.8448ZM77.8065 59.0458L77.754 59.762L75.2941 61.217L75.3278 60.4933L77.8065 59.0458ZM76.0665 55.9522L76.6103 57.0996L76.2015 57.3284L76.0778 59.9045L75.6878 60.1295L75.7628 57.5534L75.3691 57.7896L76.0665 55.9522ZM77.4315 55.1947L77.9602 56.3234L77.5252 56.5672L77.4352 59.1246L77.019 59.3571L77.1503 56.7809L76.7415 57.0134L77.4315 55.1947Z" fill="#322214"/>
<path id="Vector_24" d="M68.8999 34.627L54.0543 48.4264C53.6343 48.8277 53.3568 49.4276 53.368 49.7389C53.3605 49.7539 53.323 49.7651 53.308 49.7389C53.3268 49.4989 53.173 49.3339 53.0605 49.3076C53.1168 49.3151 53.1693 49.3339 53.1843 49.2626C53.1918 49.2176 53.203 49.1651 53.2218 49.1089C53.2368 49.0601 53.2593 49.0076 53.2855 48.9514C53.3755 48.7489 53.5218 48.5164 53.7018 48.3364L68.6749 34.3345L68.8999 34.627Z" fill="#D7AA77"/>
<path id="Vector_25" d="M65.627 51.3662C65.627 51.4074 65.6457 51.4262 65.672 51.4149L70.1305 49.1275C70.138 49.1238 70.1418 49.1163 70.1455 49.1013L70.393 41.7928C70.4005 41.3916 70.6255 40.9941 70.933 40.7203L85.7412 27.4121L81.2338 29.3433L66.3507 42.8278C65.9682 43.2027 65.8369 43.6452 65.8294 44.0202L65.627 51.3662Z" fill="url(#paint13_linear_1648_6413)"/>
<path id="Vector_26" d="M68.9 34.6268L95.9964 23.0172L95.8314 22.7922L68.6787 34.3305L68.9 34.6268Z" fill="#F8CE93"/>
</g>
</g>
<defs>
<linearGradient id="paint0_linear_1648_6413" x1="1369.47" y1="914.727" x2="1383.42" y2="936.766" gradientUnits="userSpaceOnUse">
<stop/>
<stop offset="1" stop-opacity="0"/>
</linearGradient>
<linearGradient id="paint1_linear_1648_6413" x1="1828.17" y1="759.23" x2="1826.35" y2="764.119" gradientUnits="userSpaceOnUse">
<stop/>
<stop offset="1" stop-opacity="0"/>
</linearGradient>
<linearGradient id="paint2_linear_1648_6413" x1="1725.98" y1="729.191" x2="1963.42" y2="827.615" gradientUnits="userSpaceOnUse">
<stop stop-color="#C37A44"/>
<stop offset="0.4442" stop-color="#BB713D"/>
<stop offset="0.6406" stop-color="#A05728"/>
<stop offset="1" stop-color="#964E23"/>
</linearGradient>
<linearGradient id="paint3_linear_1648_6413" x1="2655.66" y1="1491.95" x2="2140.62" y2="769.042" gradientUnits="userSpaceOnUse">
<stop stop-color="#E9B880"/>
<stop offset="1" stop-color="#E4AF76"/>
</linearGradient>
<linearGradient id="paint4_linear_1648_6413" x1="1174.82" y1="474.409" x2="1165.08" y2="447.572" gradientUnits="userSpaceOnUse">
<stop stop-color="#C37A45" stop-opacity="0"/>
<stop offset="0.1334" stop-color="#C37A45"/>
<stop offset="0.2945" stop-color="#D08D55"/>
<stop offset="0.5021" stop-color="#DEA167"/>
<stop offset="0.6966" stop-color="#E8AF73"/>
<stop offset="0.8631" stop-color="#ECB477"/>
<stop offset="1" stop-color="#ECB477" stop-opacity="0"/>
</linearGradient>
<linearGradient id="paint5_linear_1648_6413" x1="1223.74" y1="633.75" x2="752.767" y2="1716.19" gradientUnits="userSpaceOnUse">
<stop offset="0.0881" stop-color="#AF6938"/>
<stop offset="0.4829" stop-color="#9A5227"/>
<stop offset="0.7792" stop-color="#8D4520"/>
</linearGradient>
<linearGradient id="paint6_linear_1648_6413" x1="1918.53" y1="1173.61" x2="2190.67" y2="684.33" gradientUnits="userSpaceOnUse">
<stop offset="0.0327" stop-color="#E4AF76"/>
<stop offset="1" stop-color="#E9B880"/>
</linearGradient>
<linearGradient id="paint7_linear_1648_6413" x1="1352.91" y1="382.639" x2="1356.14" y2="368.341" gradientUnits="userSpaceOnUse">
<stop stop-color="#AF6A38" stop-opacity="0"/>
<stop offset="0.086" stop-color="#AF6A38"/>
<stop offset="0.1977" stop-color="#B87542"/>
<stop offset="0.5828" stop-color="#D59C66"/>
<stop offset="0.7771" stop-color="#E4AF76"/>
<stop offset="0.9239" stop-color="#E4AF76" stop-opacity="0"/>
</linearGradient>
<linearGradient id="paint8_linear_1648_6413" x1="54.6168" y1="793.758" x2="163.348" y2="793.758" gradientUnits="userSpaceOnUse">
<stop stop-color="#743F1A" stop-opacity="0"/>
<stop offset="0.4929" stop-color="#743F1A" stop-opacity="0.8872"/>
<stop offset="0.5" stop-color="#743F1A" stop-opacity="0.9"/>
<stop offset="0.5297" stop-color="#743F1A" stop-opacity="0.8466"/>
<stop offset="1" stop-color="#743F1A" stop-opacity="0"/>
</linearGradient>
<linearGradient id="paint9_linear_1648_6413" x1="1832.04" y1="759.013" x2="1832.91" y2="756.682" gradientUnits="userSpaceOnUse">
<stop stop-color="#322214"/>
<stop offset="0.2397" stop-color="#322314" stop-opacity="0.9891"/>
<stop offset="1" stop-color="#322214" stop-opacity="0"/>
</linearGradient>
<linearGradient id="paint10_linear_1648_6413" x1="2725.1" y1="988.121" x2="2695.24" y2="1087.76" gradientUnits="userSpaceOnUse">
<stop offset="0.0476" stop-color="#C69866"/>
<stop offset="0.4156" stop-color="#BA8C5E"/>
<stop offset="0.8135" stop-color="#B5875B"/>
</linearGradient>
<linearGradient id="paint11_linear_1648_6413" x1="1328.58" y1="910.07" x2="620.807" y2="124.012" gradientUnits="userSpaceOnUse">
<stop stop-color="#845F35"/>
<stop offset="0.4311" stop-color="#91673C"/>
<stop offset="0.4407" stop-color="#976A40"/>
<stop offset="0.8737" stop-color="#986B40"/>
<stop offset="1" stop-color="#AB8157"/>
</linearGradient>
<linearGradient id="paint12_linear_1648_6413" x1="1387.69" y1="920.777" x2="1389.39" y2="923.452" gradientUnits="userSpaceOnUse">
<stop stop-color="#322214" stop-opacity="0"/>
<stop offset="1" stop-color="#322214"/>
</linearGradient>
<linearGradient id="paint13_linear_1648_6413" x1="983.968" y1="1530.73" x2="1120.49" y2="840.354" gradientUnits="userSpaceOnUse">
<stop stop-color="#A9794B"/>
<stop offset="0.3857" stop-color="#AE7F53"/>
<stop offset="0.4557" stop-color="#AC7D50"/>
<stop offset="0.6236" stop-color="#A9794B"/>
<stop offset="1" stop-color="#B2875D"/>
</linearGradient>
<clipPath id="clip0_1648_6413">
<rect width="96" height="96" fill="white"/>
</clipPath>
</defs>
</svg>
