<svg width="96" height="96" viewBox="0 0 96 96" fill="none" xmlns="http://www.w3.org/2000/svg">
<g clip-path="url(#clip0_1648_6331)">
<path d="M47.9253 55.9695C52.359 55.9695 55.9532 52.3753 55.9532 47.9417C55.9532 43.508 52.359 39.9138 47.9253 39.9138C43.4917 39.9138 39.8975 43.508 39.8975 47.9417C39.8975 52.3753 43.4917 55.9695 47.9253 55.9695Z" fill="#00D8FF"/>
<path d="M47.9251 31.6206C58.7014 31.6206 68.7137 33.1673 76.2614 35.7645C85.3557 38.895 90.9482 43.6412 90.9482 47.939C90.9482 52.4172 85.0214 57.4604 75.2559 60.6944C67.8727 63.1404 58.1549 64.4191 47.9251 64.4191C37.4353 64.4191 27.5053 63.22 20.0372 60.6679C10.59 57.4392 4.89941 52.3323 4.89941 47.939C4.89941 43.6757 10.2398 38.9667 19.2068 35.8415C26.7837 33.2018 37.0427 31.6206 47.9251 31.6206Z" stroke="#00D8FF" stroke-width="5" stroke-miterlimit="10"/>
<path d="M33.7189 39.8288C39.1017 30.4931 45.4449 22.5926 51.4672 17.353C58.723 11.0389 65.6287 8.56637 69.3508 10.7126C73.2294 12.9491 74.6381 20.6028 72.5608 30.6814C70.9903 38.3007 67.2443 47.3553 62.1321 56.2188C56.8925 65.3052 50.8915 73.3092 44.9515 78.5037C37.4357 85.0751 30.1665 87.4521 26.3622 85.2581C22.6693 83.1278 21.2579 76.1505 23.0274 66.8201C24.5237 58.9302 28.2803 49.2548 33.7189 39.8288Z" stroke="#00D8FF" stroke-width="5" stroke-miterlimit="10"/>
<path d="M33.733 56.2376C28.3343 46.9098 24.6573 37.4705 23.1239 29.6363C21.2774 20.1971 22.5827 12.9784 26.3021 10.8269C30.1781 8.58245 37.5109 11.185 45.2044 18.0164C51.0224 23.1817 56.9942 30.9496 62.1197 39.8051C67.3752 48.8836 71.3149 58.0787 72.8456 65.8174C74.7849 75.6121 73.2144 83.0961 69.4127 85.2954C65.7224 87.4311 58.9733 85.1707 51.7732 78.9761C45.6926 73.7418 39.1849 65.6556 33.733 56.2376Z" stroke="#00D8FF" stroke-width="5" stroke-miterlimit="10"/>
</g>
<defs>
<clipPath id="clip0_1648_6331">
<rect width="96" height="96" fill="white"/>
</clipPath>
</defs>
</svg>
