<svg width="96" height="96" viewBox="0 0 96 96" fill="none" xmlns="http://www.w3.org/2000/svg">
<g clip-path="url(#clip0_1648_6344)">
<path d="M66.5179 65.8999C70.0605 65.5331 72.7481 62.4791 72.6259 58.8139C72.504 55.149 69.4496 52.2169 65.7847 52.2169H65.5406C61.7531 52.3391 58.8214 55.5154 58.9436 59.3025C59.0659 61.1351 59.7986 62.7233 60.8981 63.8228C56.7446 72.0082 50.3921 77.9944 40.8634 83.0033C34.3886 86.424 27.6697 87.6458 20.9509 86.7907C15.4534 86.0576 11.1776 83.6145 8.48962 79.5825C4.58062 73.5964 4.21425 67.1212 7.51275 60.6465C9.834 56.004 13.4985 52.5832 15.8197 50.8729C15.3311 49.2847 14.598 46.5971 14.2316 44.6426C-3.48225 57.4702 -1.64963 74.8181 3.72562 83.0033C7.75687 89.112 15.942 92.8991 24.9821 92.8991C27.4252 92.8991 29.8684 92.6546 32.3119 92.0441C47.949 88.9898 59.799 79.7048 66.5179 65.8999ZM88.0189 50.751C78.7342 39.8779 65.052 33.8918 49.4149 33.8918H47.4604C46.3609 31.6927 44.0396 30.2265 41.4742 30.2265H41.2297C37.443 30.3487 34.5112 33.525 34.6331 37.3125C34.7554 40.9774 37.8094 43.9095 41.4742 43.9095H41.7184C44.406 43.7873 46.7272 42.0769 47.7045 39.7556H49.9035C59.1881 39.7556 67.9837 42.4433 75.9247 47.6966C82.0327 51.7283 86.4307 56.9816 88.8739 63.3341C90.9506 68.4653 90.8284 73.4741 88.6294 77.7503C85.209 84.225 79.4674 87.768 71.8931 87.768C67.0065 87.768 62.3644 86.3018 59.9209 85.2022C58.5772 86.424 56.1337 88.3785 54.4234 89.6006C59.6767 92.0437 65.052 93.3877 70.1827 93.3877C81.9105 93.3877 90.5842 86.9126 93.8827 80.4379C97.4254 73.3519 97.1809 61.1351 88.0189 50.751ZM25.9594 67.9762C26.0816 71.6415 29.1356 74.5732 32.8005 74.5732H33.045C36.8321 74.4514 39.7639 71.2747 39.6416 67.4876C39.5197 63.8224 36.4654 60.8906 32.8005 60.8906H32.5564C32.3119 60.8906 31.9451 60.8906 31.7014 61.0125C26.6925 52.7051 24.6157 43.665 25.3489 33.8914C25.8371 26.5612 28.2806 20.2084 32.5564 14.955C36.099 10.4348 42.9401 8.23575 47.5826 8.11387C60.5317 7.86938 66.0289 23.9955 66.3956 30.4706C67.9837 30.837 70.6714 31.6924 72.504 32.3032C71.0377 12.5122 58.8214 2.25 47.094 2.25C36.099 2.25 25.9594 10.191 21.9277 21.9191C16.3084 37.5566 19.9732 52.5832 26.8144 64.4336C26.2039 65.2886 25.8371 66.6322 25.9594 67.9762Z" fill="#764ABC"/>
</g>
<defs>
<clipPath id="clip0_1648_6344">
<rect width="96" height="96" fill="white"/>
</clipPath>
</defs>
</svg>
