<svg width="96" height="96" viewBox="0 0 96 96" fill="none" xmlns="http://www.w3.org/2000/svg">
<g id="styled components " clip-path="url(#clip0_1648_6456)">
<rect width="96" height="96" fill="white"/>
<path id="Vector" d="M64.856 27.0481L64.556 28.6121C64.092 31.5761 64.26 32.4241 65.532 33.5241L66.76 34.5401L65.488 40.2121C64.728 43.5961 63.796 46.4321 63.204 47.3641C62.696 48.1681 62.104 49.3521 61.976 49.9881C61.764 50.7481 61.044 51.5121 59.944 52.1881C58.972 52.7401 57.064 54.2201 55.712 55.4081C54.632 56.3801 53.888 56.9761 53.484 57.2321L52.164 58.2761C51.74 58.9561 51.5 59.5041 51.408 59.9201C51.316 60.3481 51.368 60.6321 51.504 60.8401C51.636 61.0401 51.864 61.1801 52.176 61.2681C52.5453 61.3547 52.9255 61.3857 53.304 61.3601C54.1603 61.3016 55.0078 61.1514 55.832 60.9121C56.112 60.8361 56.332 60.7641 56.524 60.7001C56.82 60.3361 57.504 59.6481 58.716 58.4521C61.932 55.2801 63.16 53.5441 61.892 54.0121C61.424 54.1801 61.636 53.7561 62.44 52.9081C64.136 51.2561 65.108 48.7601 67.14 40.9321C68.748 34.7521 68.748 34.6641 69.932 34.6641C70.488 34.6641 72.06 34.7601 72.06 34.7601V27.0481H68.452H64.856ZM80.212 39.7081C79.956 39.7081 79.532 40.0921 79.28 40.5161C78.816 41.2761 79.364 41.7401 86.348 46.1001C90.496 48.7281 93.84 50.9681 93.756 51.1401C93.672 51.2641 90.284 53.4681 86.224 56.0081C78.856 60.5761 78.816 60.6201 79.492 61.5521C80.34 62.6521 79.492 63.0321 89.056 57.0641L96 52.6201V49.2761L88.252 44.4921C84.064 41.8681 80.424 39.7521 80.212 39.7081ZM15.872 40.1761C15.66 40.1761 12.02 42.3361 7.832 44.9161L0 49.7001V53.0441L7.788 57.9121C12.108 60.5761 15.748 62.7801 15.916 62.7801C16.084 62.7801 16.424 62.3961 16.764 61.9321C17.272 61.1281 16.844 60.7881 9.692 56.2601C2.88 51.9841 2.16 51.3921 2.84 50.9281C3.264 50.6321 6.48 48.6401 9.952 46.4841C17.868 41.6161 17.444 41.9521 16.808 40.9361C16.556 40.5161 16.128 40.1361 15.876 40.1761H15.872ZM50.608 40.2681C49.44 40.2601 46.928 42.0401 39.408 48.1801C39.084 48.9521 39.056 49.4841 39.204 49.8281C39.3 50.0641 39.476 50.2281 39.72 50.3481C39.96 50.4681 40.272 50.5401 40.616 50.5681C41.3 50.6281 42.108 50.5201 42.76 50.3921L43.2 50.2921C43.3506 50.0901 43.5484 49.9281 43.776 49.8201C44.24 49.5641 46.188 47.7881 48.136 45.8841C51.564 42.4121 52.368 40.8441 50.972 40.3361C50.8575 40.2905 50.7313 40.2674 50.608 40.2681ZM59.392 42.6801C58.364 42.7081 56.512 43.9001 53.34 46.4321C51.748 47.7241 50.74 48.4201 50.2 48.5641L48.104 50.2201C47.316 51.6601 47.2 52.5521 47.408 53.0441C47.4601 53.1655 47.5356 53.2753 47.6304 53.3673C47.7251 53.4593 47.8372 53.5316 47.96 53.5801C48.2656 53.7008 48.5914 53.7619 48.92 53.7601C49.7051 53.7517 50.4855 53.6374 51.24 53.4201C51.6332 53.3146 52.0216 53.1918 52.404 53.0521L52.52 53.0041L52.732 52.8921C53.132 52.3761 54.052 51.4041 55.204 50.2841C58.844 46.7721 60.704 44.2761 60.324 43.3441C60.152 42.8921 59.856 42.6641 59.392 42.6801ZM49.696 47.0001C49.4 47.0321 48.736 47.5441 47.54 48.5921C45.812 50.1201 43.928 51.0001 43.276 50.6081C43.1245 50.6423 42.9725 50.6743 42.82 50.7041C42.156 50.8361 41.328 50.9441 40.588 50.8841C40.2393 50.863 39.8976 50.7775 39.58 50.6321C39.2804 50.4951 39.0414 50.2532 38.908 49.9521C38.76 49.5921 38.76 49.1441 38.928 48.5721L36.328 50.7081L30.444 55.5761V63.4681L49.724 48.2801C49.7203 48.1138 49.7418 47.9479 49.788 47.7881C49.936 47.2521 49.928 46.9801 49.696 47.0041V47.0001ZM57.992 49.5561C57.7 49.5561 57.212 49.9681 56.432 50.7961C55.372 51.9281 53.704 53.0241 52.82 53.2481L52.684 53.3201C52.5389 53.38 52.3921 53.436 52.244 53.4881C52.004 53.5681 51.692 53.6641 51.332 53.7601C50.612 53.9561 49.716 54.1361 48.916 54.1161C48.5388 54.1156 48.1653 54.0423 47.816 53.9001C47.4867 53.7644 47.2229 53.5063 47.08 53.1801C46.848 52.6241 46.94 51.8441 47.448 50.7361L30.44 64.1321V68.9521H37.912L53.76 56.5041C54.172 56.0481 54.792 55.4241 55.628 54.6441C57.868 52.5681 58.376 51.8521 58.376 50.7921C58.376 49.9681 58.284 49.5521 57.992 49.5521V49.5561ZM61.764 57.3561L60.408 58.7081C59.648 59.4281 58.292 60.3161 57.364 60.6961L57.18 60.7761L57.168 60.7961L57.128 60.8361C57.092 60.8641 57.076 60.8681 57.048 60.8801C56.6775 61.0203 56.3012 61.1444 55.92 61.2521C55.0725 61.4988 54.2007 61.653 53.32 61.7121C52.9036 61.7388 52.4855 61.7024 52.08 61.6041C51.7281 61.5266 51.4174 61.3214 51.208 61.0281C51.016 60.7321 50.96 60.3361 51.068 59.8481C51.1539 59.5007 51.2815 59.1649 51.448 58.8481L38.66 68.9521H55.668L57.7 66.6241C60.492 63.3681 61.764 61.0401 61.764 59.0481V57.3561Z" fill="black"/>
</g>
<defs>
<clipPath id="clip0_1648_6456">
<rect width="96" height="96" fill="white"/>
</clipPath>
</defs>
</svg>
