<svg width="96" height="96" viewBox="0 0 96 96" fill="none" xmlns="http://www.w3.org/2000/svg">
<g clip-path="url(#clip0_1648_6339)">
<path d="M0 48V0H96V96H0" fill="#007ACC"/>
<path d="M21.0479 48.1679V52.0799H33.5279V87.5999H42.3839V52.0799H54.8639V48.2399C54.8639 46.0799 54.8639 44.3279 54.7679 44.2799C54.7679 44.2079 47.1599 44.1839 37.9199 44.1839L21.1199 44.2559V48.1919L21.0479 48.1679ZM77.1359 44.1599C79.5839 44.7359 81.4559 45.8399 83.1359 47.5919C84.0239 48.5519 85.3438 50.2319 85.4398 50.6639C85.4398 50.8079 81.2879 53.6159 78.7679 55.1759C78.6719 55.2479 78.2879 54.8399 77.9039 54.2159C76.6559 52.4399 75.3839 51.6719 73.3919 51.5279C70.5119 51.3359 68.5919 52.8479 68.5919 55.3679C68.5919 56.1359 68.7359 56.5679 69.0239 57.1919C69.6719 58.5119 70.8719 59.3039 74.5919 60.9359C81.4559 63.8879 84.4318 65.8319 86.2318 68.6159C88.2719 71.7359 88.7279 76.6319 87.3598 80.3039C85.8239 84.3119 82.0799 87.0239 76.7279 87.9119C75.0479 88.1999 71.2079 88.1519 69.4079 87.8399C65.5679 87.1199 61.8959 85.1999 59.6399 82.7279C58.7519 81.7679 57.0479 79.1999 57.1439 79.0319L58.0559 78.4559L61.6559 76.3679L64.3679 74.7839L64.9919 75.6239C65.7839 76.8719 67.5599 78.5519 68.5919 79.1279C71.7119 80.7359 75.8879 80.5199 77.9519 78.6479C78.8399 77.8319 79.2239 76.9679 79.2239 75.7679C79.2239 74.6639 79.0559 74.1599 78.5039 73.3199C77.7359 72.2639 76.1999 71.3999 71.8799 69.4799C66.9119 67.3679 64.7999 66.0239 62.8319 63.9599C61.7038 62.7119 60.6719 60.7679 60.1919 59.1599C59.8319 57.7679 59.7119 54.3599 60.0479 52.9919C61.0799 48.1919 64.7039 44.8319 69.8879 43.8719C71.5679 43.5359 75.5279 43.6799 77.1839 44.1119L77.1359 44.1599Z" fill="white"/>
</g>
<defs>
<clipPath id="clip0_1648_6339">
<rect width="96" height="96" fill="white"/>
</clipPath>
</defs>
</svg>
