<svg width="96" height="96" viewBox="0 0 96 96" fill="none" xmlns="http://www.w3.org/2000/svg">
<g id="vite">
<path id="Vector" d="M89.6507 18.438L50.2253 88.9371C49.4111 90.3924 47.3201 90.4011 46.4936 88.9527L6.28666 18.4446C5.38666 16.866 6.73606 14.9541 8.52466 15.2736L47.9927 22.3284C48.2444 22.3734 48.5022 22.373 48.7538 22.3272L87.3962 15.2838C89.1788 14.9589 90.5351 16.8564 89.6507 18.438Z" fill="url(#paint0_linear_1648_6443)"/>
<path id="Vector_2" d="M66.7931 6.02071L37.6172 11.7375C37.3841 11.7831 37.1727 11.905 37.0164 12.0839C36.86 12.2628 36.7676 12.4885 36.7535 12.7257L34.9589 43.0371C34.9169 43.7511 35.5724 44.3052 36.269 44.1444L44.3921 42.27C45.1523 42.0945 45.839 42.7641 45.6827 43.5282L43.2695 55.3461C43.1069 56.1411 43.8536 56.8215 44.6303 56.5857L49.6475 55.0611C50.4254 54.825 51.1727 55.5072 51.0083 56.3031L47.1731 74.8662C46.9331 76.0272 48.4775 76.6602 49.1216 75.6648L49.5518 75L73.3259 27.5544C73.724 26.76 73.0379 25.8543 72.1649 26.0226L63.8039 27.6363C63.0179 27.7878 62.3495 27.0561 62.5712 26.2872L68.0285 7.36921C68.2505 6.59881 67.5797 5.86651 66.7931 6.02071Z" fill="url(#paint1_linear_1648_6443)"/>
</g>
<defs>
<linearGradient id="paint0_linear_1648_6443" x1="5.30487" y1="12.7538" x2="54.3704" y2="79.3886" gradientUnits="userSpaceOnUse">
<stop stop-color="#41D1FF"/>
<stop offset="1" stop-color="#BD34FE"/>
</linearGradient>
<linearGradient id="paint1_linear_1648_6443" x1="45.7253" y1="7.5726" x2="54.601" y2="68.459" gradientUnits="userSpaceOnUse">
<stop stop-color="#FFEA83"/>
<stop offset="0.0833" stop-color="#FFDD35"/>
<stop offset="1" stop-color="#FFA800"/>
</linearGradient>
</defs>
</svg>
