<svg width="96" height="96" viewBox="0 0 96 96" fill="none" xmlns="http://www.w3.org/2000/svg">
<g id="webpack">
<g id="Group">
<path id="Vector" d="M47.9994 0.0161133L90.3718 23.9845V71.9373L47.9994 95.9057L5.62695 71.9373V23.9845L47.9994 0.0161133Z" fill="white"/>
<path id="Vector_2" d="M82.8085 70.2744L49.4062 89.1901V74.4797L70.2247 63.0152L82.8085 70.2744ZM85.095 68.2118V28.6855L72.879 35.7369V61.1604L85.095 68.2118ZM13.0619 70.2744L46.4642 89.1741V74.4637L25.6457 63.0152L13.0619 70.2744ZM10.7754 68.2118V28.6855L22.9914 35.7369V61.1604L10.7754 68.2118ZM12.1985 26.1272L46.4642 6.7478V20.9785L24.5104 33.0507L24.3346 33.1466L12.1985 26.1272ZM83.6559 26.1272L49.4062 6.7478V20.9785L71.344 33.0667L71.5198 33.1626L83.6559 26.1272Z" fill="#8ED6FB"/>
<path id="Vector_3" d="M46.4642 71.1218L25.9336 59.8171V37.4477L46.4642 49.296V71.1218ZM49.4063 71.1218L69.9369 59.8331V37.4477L49.4063 49.296V71.1218ZM27.3087 34.8574L47.9353 23.5208L68.5459 34.8574L47.9353 46.7536L27.3087 34.8574Z" fill="#1C78C0"/>
</g>
</g>
</svg>
